<?xml version="1.0" encoding="utf-8"?>
<!-- Generator: Adobe Illustrator 22.1.0, SVG Export Plug-In . SVG Version: 6.00 Build 0)  -->
<svg version="1.1" id="Layer_1" xmlns="http://www.w3.org/2000/svg" xmlns:xlink="http://www.w3.org/1999/xlink" x="0px" y="0px"
	 viewBox="0 0 800 450" style="enable-background:new 0 0 800 450;" xml:space="preserve">
<style type="text/css">
	.st0{fill:#0071BC;}
	.st1{fill:#00B337;}
	.st2{fill:#666666;}
	.st3{opacity:0.42;}
	.st4{fill:#4400CB;}
	.st5{fill:#FFFFFF;}
	.st6{fill:#FF6631;}
	.st7{fill:#F100B4;}
	.st8{fill:#003C1A;}
	.st9{fill:#C1272D;}
	.st10{fill:#2687FF;}
	.st11{fill:#8F00AF;}
	.st12{fill:#754C24;}
	.st13{fill:#56466C;}
</style>
<rect x="5" class="st0" width="746" height="450"/>
<g>
	<path class="st1" d="M597.7,284.7c-12.2-38.3-4.6-67.9-3.3-86.7c2.9-42.4-20.8-106.5-146-198H0v450h695
		c-19.3-38.1-37.5-67.5-50.7-87.3C619.1,324.5,606.4,312.1,597.7,284.7z M113,213.6c-4.2,13-10.4,13.9-14.7,25.4
		c-7.7,20.8,13.6,34,6,56.4c-0.7,2-5.4,15.1-17.3,19.3c-14.4,5.1-28.9-6.4-30-7.3c-2.9-2.4-6.4-6-18.8-46.6
		c-9.7-31.7-3.6-10.9-8.9-35.7c-1-4.8-2.4-11.9-2-20.5c0.1-3,0.5-5.5,0.7-7.2c1.2-15.1-7.8-31.8,0.3-44.7c4.8-7.6,14.1-10.9,22.9-13
		c0.2,0,0.4-0.1,0.6-0.1c2.6-2.6,7-3.5,10.6-2.4c4.8,1.5,8.3,5.8,10.4,10.3c2.1,4.6,3.1,9.6,4.6,14.3c0.8,2.7,1.8,5.2,3,7.8
		c3.1,1.4,6.4,2.6,9.4,4.1c7.6,3.6,14.6,8.8,19.3,15.8C113.6,196.5,115.6,205.6,113,213.6z M359.9,424.6
		c-12.3,16.5-35,23.9-53.3,20.7c-13.7-2.4-14.7-8.9-29.3-10c-15.1-1.2-18.7,5.4-33.3,5.3c-3.1,0-24.6-0.4-37.3-15.3
		c-14.4-16.9-12.1-46.3,2-62c9.6-10.7,23.8-12.5,52-16c19.9-2.5,29.8-3.7,42,0.7c14.9,5.4,13.8,12.1,36.7,25.3
		c18,10.4,25,9.9,28.7,18C374.1,405,361.4,422.5,359.9,424.6z"/>
	<path class="st1" d="M504.7,0c49.9,34.5,77.4,72.6,91.6,96c12.5,20.7,22.7,37.5,27.3,62.7c7.7,41.7-8.4,58.5-2.3,97.3
		c3.1,19.7,9.8,31.6,36.6,74c21.6,34.3,47.7,74.8,77.7,120H800V0H504.7z"/>
</g>
<g>
	<g>
		<path class="st2" d="M140.2,123.7c6.7,26.4,6.2,52.6,1.1,79.2c-5.1,26.7-9.2,53.4-11.5,80.6c-1.2,13.6-2.1,27.2-2.9,40.9
			c-0.4,5.6-1.4,11.9,1.6,17c2.2,3.9,6.1,6.1,10.5,6.9c10.6,1.9,22-3.6,32.1-6.2c12.9-3.4,26-6.2,39.2-8.7
			c26.5-5,53.2-8.4,79.9-11.7c26.4-3.3,52.4-5.5,79-2.7c26.2,2.7,52,9.1,77.1,16.9c25.1,7.8,49.4,18.1,74.9,24.4
			c24.6,6.1,50.1,7.2,73.8-2.9c21.4-9,40.9-24.2,58.5-39.1c8.3-7.1,16.2-15.3,21-25.3c5.5-11.5,5.9-24.1,5.9-36.7
			c0-27.9,0-55.8,0-83.7c0-14,0-27.9,0-41.9c0-12.2,0.9-25.2-4.7-36.5c-8.8-17.8-29.8-23-47.9-24.7c-26-2.5-52.6-1.9-78.6-2.1
			c-27.9-0.3-55.8-0.2-83.7,0.1c-27.9,0.3-55.8,0.8-83.7,1.3c-27,0.5-53.8,0.8-80.3,6.2c-26.3,5.4-51.8,13.4-78.6,15.8
			c-13.5,1.2-27,1.6-40.6,1.5c-12.8-0.1-25.6-1.3-38.3-1c-9.6,0.2-19.2,2.6-24.7,11.2c-4.2,6.5,6.2,12.6,10.4,6.1
			c4.8-7.5,18.1-5.2,25.5-5c12.9,0.5,25.8,0.9,38.7,0.7c25.7-0.4,50.8-3.4,75.7-9.4c25-6,49.4-11.9,75.2-13.2
			c26.2-1.3,52.6-1.2,78.9-1.7c53.2-0.9,106.3-1.3,159.5-0.2c12.6,0.3,25.3,0.4,37.9,1.1c9,0.5,18.1,1.6,26.7,4.6
			c8,2.9,15.3,8.2,18.4,16.4c4.2,11.2,2.3,25,2.3,36.7c0,26.6,0,53.1,0,79.7c0,13.2,0,26.5,0,39.7c0,12-0.7,23.8-7.3,34.2
			c-5.7,9-14.1,16-22.3,22.5c-8.9,7-18,13.9-27.5,20.1c-9.5,6.2-19.6,11.7-30.6,14.9c-11.7,3.4-24,3.9-36.1,2.6
			c-24.9-2.7-48.4-12.5-71.9-20.6c-23.7-8.2-47.8-15.4-72.4-20.2c-24.1-4.7-48.7-7.2-73.3-5.8c-25.3,1.4-50.5,5.4-75.6,8.9
			c-25.3,3.5-50.5,7.7-75.3,13.7c-5.9,1.4-11.7,3-17.6,4.6c-4.9,1.4-9.9,3.5-15,3.6c-4.9,0.1-5.2-1.9-5-6.4
			c0.3-6.8,0.9-13.6,1.3-20.4c1.7-25.7,3.8-51.4,8-76.9c4.1-25.2,10.6-49.8,9.4-75.6c-0.6-12.4-2.5-24.7-5.5-36.8
			C149.9,113,138.3,116.2,140.2,123.7L140.2,123.7z"/>
	</g>
</g>
<g>
	<g>
		<path class="st2" d="M292.2,218.7c27.5-9.6,56.5-12.7,85.5-13.4c29.1-0.7,58.8,2.4,87.7-1.8c15-2.1,29.6-6.2,44.1-10.4
			c13.2-3.9,25.4-7.9,36.2-16.7c10.3-8.4,19-18.7,29.2-27.3c9.6-8.1,20-15.1,30.9-21.3c25.1-14.2,53.1-23,81.9-25.7
			c7.6-0.7,7.7-12.7,0-12c-52.1,4.8-100,28.1-136.9,65.1c-10.2,10.2-19.8,18.8-33.8,23.2c-13.7,4.3-27.7,8.3-41.7,11.3
			c-29.6,6.2-60.1,3.1-90.1,3.5c-32.5,0.4-65.3,3.3-96.1,14C281.8,209.6,284.9,221.2,292.2,218.7L292.2,218.7z"/>
	</g>
</g>
<g>
	<g>
		<path class="st2" d="M137.2,342c15.7-12.7,31.7-25.2,47.2-38.2c14.3-12,26.6-25.8,39.6-39.1c13.1-13.4,27.5-24.7,43.5-34.5
			c8.2-5,16.5-9.7,24.9-14.4c8.3-4.6,16.9-9.3,26.6-9.9c7.7-0.5,7.7-12.5,0-12c-15.3,1-28.3,9-41.2,16.4
			c-13.5,7.7-26.9,15.6-39.2,25.1c-24.2,18.6-42.7,43.4-66.2,62.8c-14.4,11.9-29.1,23.5-43.6,35.2
			C122.7,338.3,131.2,346.8,137.2,342L137.2,342z"/>
	</g>
</g>
<g>
	<g>
		<path class="st2" d="M287.8,191c3.4-17.7-1.2-34.8-5.3-51.9c-2.1-8.6-3.9-17.2-4.1-26c-0.2-8.6,0.2-16.8-3.8-24.6
			c-3.5-6.9-13.8-0.8-10.4,6.1c3.5,6.9,1.8,15.4,2.4,22.9c0.5,7.8,2.1,15.6,3.9,23.2c3.6,15.4,8.7,31.3,5.7,47.3
			C274.8,195.4,286.4,198.6,287.8,191L287.8,191z"/>
	</g>
</g>
<g>
	<g>
		<path class="st2" d="M563.6,331.3c-5.8-49.9-16.5-99.3-41.4-143.4c-3.8-6.7-14.2-0.7-10.4,6.1c23.8,42.2,34.2,89.6,39.7,137.3
			C552.5,338.9,564.5,339,563.6,331.3L563.6,331.3z"/>
	</g>
</g>
<g>
	<g>
		<path class="st2" d="M272.9,87C262.6,59,251.2,31.3,238.8,4.1c-3.2-7-13.5-0.9-10.4,6.1c11.9,26.3,22.9,53,32.9,80.1
			C264,97.4,275.6,94.3,272.9,87L272.9,87z"/>
	</g>
</g>
<g>
	<g>
		<path class="st2" d="M398.8,348.6c4.7,32.3,10.5,64.5,17.5,96.4c1.7,7.5,13.2,4.3,11.6-3.2c-7-31.9-12.8-64-17.5-96.4
			C409.3,337.7,397.7,341,398.8,348.6L398.8,348.6z"/>
	</g>
</g>
<rect x="234.8" y="198.4" class="st3" width="107" height="67.7"/>
<polygon class="st3" points="288.3,161.4 234.8,198.4 341.8,198.4 "/>
<rect x="333.8" y="64.4" class="st3" width="107" height="67.7"/>
<polygon class="st3" points="387.3,27.4 333.8,64.4 440.8,64.4 "/>
<rect x="461.1" y="175.7" class="st3" width="107" height="67.7"/>
<polygon class="st3" points="514.6,138.7 461.1,175.7 568.1,175.7 "/>
<rect x="629.1" y="78.2" class="st3" width="107" height="67.7"/>
<polygon class="st3" points="682.6,41.2 629.1,78.2 736.1,78.2 "/>
<rect x="101.8" y="89.5" class="st3" width="107" height="67.7"/>
<polygon class="st3" points="155.3,52.5 101.8,89.5 208.8,89.5 "/>
<rect x="522.1" y="344.5" class="st3" width="107" height="67.7"/>
<polygon class="st3" points="575.6,307.5 522.1,344.5 629.1,344.5 "/>
<rect x="654.5" y="237" class="st3" width="107" height="67.7"/>
<polygon class="st3" points="708,200 654.5,237 761.5,237 "/>
<rect x="351.6" y="313.7" class="st3" width="107" height="67.7"/>
<polygon class="st3" points="405.1,276.7 351.6,313.7 458.6,313.7 "/>
<rect x="91.8" y="335.9" class="st3" width="107" height="67.7"/>
<polygon class="st3" points="145.3,298.9 91.8,335.9 198.8,335.9 "/>
<polygon class="st4" points="283.2,155.7 229.7,192.7 229.7,260.3 336.7,260.3 336.7,192.7 "/>
<g>
	<path class="st5" d="M248.8,211.1c0.3,0,0.5,0.2,0.5,0.6c0,0.4-0.4,0.9-1.3,1.7s-1.9,1.3-3,1.7s-2.2,0.6-3.1,0.6
		c-1.4,0-2.6-0.5-3.8-1.4s-1.7-2.2-1.7-4c0-3.2,1.4-6.2,4.1-9.2s5.3-4.5,7.9-4.5c0.9,0,1.7,0.3,2.3,0.9s0.8,1.3,0.8,2
		c0,0.7,0,1.3-0.1,1.7s-0.3,0.8-0.7,1s-0.7,0.4-1,0.4c-0.2,0-0.3-0.1-0.5-0.2s-0.2-0.4-0.2-0.6c0-0.2,0.1-0.6,0.2-1.1
		c0.1-0.6,0.2-1,0.2-1.3c0-0.8-0.3-1.2-1-1.2c-1.1,0-2.4,0.6-4,1.9s-2.9,2.8-4,4.7s-1.7,3.7-1.7,5.3c0,1.1,0.3,2,1,2.7
		s1.5,1.1,2.7,1.1c0.7,0,1.5-0.2,2.5-0.5s1.9-0.8,2.7-1.4S248.6,211.1,248.8,211.1z"/>
	<path class="st5" d="M256.2,215.3c-1.1,0-2-0.4-2.6-1.2s-1-1.8-1-3c0-2,0.7-4,2-6s3-2.9,4.9-2.9c1.3,0,2.3,0.5,3,1.4
		s1.2,2.1,1.2,3.4c0,2-0.8,3.9-2.4,5.6S257.9,215.3,256.2,215.3z M254.5,210.7c0,0.8,0.2,1.4,0.5,1.9s0.8,0.8,1.3,0.8
		c1.2,0,2.3-0.6,3.5-1.9s1.8-2.7,1.8-4.3c0-1-0.2-1.7-0.7-2.3s-1.1-0.9-1.8-0.9c-1.3,0-2.3,0.8-3.2,2.3S254.5,209.3,254.5,210.7z"/>
	<path class="st5" d="M274.2,205.7c-0.4,0-0.8,0.3-1.3,0.8s-1.2,1.7-2.2,3.6c-1.3,2.5-2.1,3.9-2.5,4.2s-0.7,0.5-0.9,0.5
		c-0.9,0-1.4-0.4-1.4-1.3c0-0.4,0.1-0.9,0.2-1.6c0.4-2.4,0.6-4.8,0.6-7.5c0-0.3,0.1-0.6,0.4-1s0.5-0.5,0.7-0.5
		c0.4,0,0.7,0.1,0.9,0.4s0.3,0.8,0.3,1.5c0,0.8-0.2,2.4-0.7,4.9c-0.2,0.8-0.2,1.3-0.2,1.5c0,0.1,0,0.2,0.1,0.2
		c0.1,0,0.7-0.9,1.6-2.8c1-1.9,1.8-3.2,2.6-4s1.5-1.2,2.4-1.2c0.7,0,1.3,0.3,1.7,1s0.8,1.8,1,3.5c0.2,1.9,0.4,3.1,0.6,3.6
		s0.5,0.7,0.8,0.7c0.2,0,0.5-0.1,0.9-0.3c0.1,0,0.1,0,0.1,0c0.3,0,0.5,0.2,0.5,0.6c0,0.3-0.2,0.7-0.7,1.1s-1,0.6-1.7,0.6
		c-0.7,0-1.2-0.3-1.5-0.8s-0.7-1.9-0.9-4.2C275.4,206.8,274.9,205.7,274.2,205.7z"/>
	<path class="st5" d="M290.1,205.7c-0.4,0-0.8,0.3-1.3,0.8s-1.2,1.7-2.2,3.6c-1.3,2.5-2.1,3.9-2.5,4.2s-0.7,0.5-0.9,0.5
		c-0.9,0-1.4-0.4-1.4-1.3c0-0.4,0.1-0.9,0.2-1.6c0.4-2.4,0.6-4.8,0.6-7.5c0-0.3,0.1-0.6,0.4-1s0.5-0.5,0.7-0.5
		c0.4,0,0.7,0.1,0.9,0.4s0.3,0.8,0.3,1.5c0,0.8-0.2,2.4-0.7,4.9c-0.2,0.8-0.2,1.3-0.2,1.5c0,0.1,0,0.2,0.1,0.2
		c0.1,0,0.7-0.9,1.6-2.8c1-1.9,1.8-3.2,2.6-4s1.5-1.2,2.4-1.2c0.7,0,1.3,0.3,1.7,1s0.8,1.8,1,3.5c0.2,1.9,0.4,3.1,0.6,3.6
		s0.5,0.7,0.8,0.7c0.2,0,0.5-0.1,0.9-0.3c0.1,0,0.1,0,0.1,0c0.3,0,0.5,0.2,0.5,0.6c0,0.3-0.2,0.7-0.7,1.1s-1,0.6-1.7,0.6
		c-0.7,0-1.2-0.3-1.5-0.8s-0.7-1.9-0.9-4.2C291.2,206.8,290.8,205.7,290.1,205.7z"/>
	<path class="st5" d="M300.2,212.1c0,0.6,0.1,1.3,0.2,2c0,0.1,0,0.3,0,0.4c0,0.1-0.1,0.3-0.4,0.5s-0.5,0.3-0.8,0.3
		c-0.8,0-1.1-0.7-1.1-2.1c0-1.4,0.3-3.7,0.9-6.8c0.2-1.1,0.3-1.8,0.3-2c0-0.5,0.1-0.9,0.3-1.3s0.4-0.5,0.8-0.5
		c0.4,0,0.7,0.1,0.9,0.3s0.3,0.4,0.3,0.6s-0.1,0.5-0.2,0.9c-0.6,2.1-0.9,3.5-1.1,4.4S300.2,210.8,300.2,212.1z M301.7,199
		c-0.2,0-0.3-0.2-0.4-0.5c0-0.1-0.1-0.2-0.1-0.4c-0.2-0.5-0.3-0.9-0.3-1.3c0-0.3,0.2-0.6,0.6-1s0.8-0.5,1.2-0.5
		c0.2,0,0.5,0.1,0.8,0.3s0.4,0.3,0.4,0.5c0,0.3-0.1,0.7-0.3,1.3s-0.5,1-0.9,1.2S301.9,199,301.7,199z"/>
	<path class="st5" d="M314.8,210.7c0,0.8-0.7,1.8-2.1,2.9s-2.9,1.7-4.4,1.7c-1.3,0-2.2-0.4-2.9-1.1s-1-1.8-1-3.1
		c0-2.2,0.8-4.4,2.3-6.4s3.2-3,4.9-3c0.6,0,1.1,0.2,1.4,0.6s0.6,0.8,0.6,1.4c0,1.2-0.6,2.4-1.8,3.5s-2.8,2.2-4.7,3.2
		c-0.4,0.2-0.6,0.5-0.6,0.8c0,0.6,0.2,1.2,0.6,1.6s0.9,0.6,1.7,0.6c1.7,0,3.4-0.9,5.1-2.8c0.3-0.3,0.5-0.4,0.6-0.4
		C314.7,210.1,314.8,210.3,314.8,210.7z M306.7,208.9c3.3-2,5-3.6,5-4.7c0-0.5-0.2-0.7-0.6-0.7c-0.7,0-1.5,0.5-2.4,1.6
		S307,207.3,306.7,208.9z"/>
	<path class="st5" d="M317.5,196.1c0-0.1,0.2-0.2,0.5-0.3s0.5-0.2,0.6-0.2s0.4,0.2,0.7,0.6l0.3,0.3c0.4,0.4,0.6,0.8,0.8,1.2
		c0.1,0.2,0.1,0.4,0.1,0.8c0,0.7-0.2,1.7-0.7,3s-1,2-1.7,2c-0.2,0-0.4-0.1-0.6-0.2s-0.3-0.3-0.3-0.5c0-0.4,0.2-0.7,0.5-1
		c0.7-0.7,1.1-1.5,1.1-2.5c0-0.4-0.3-0.9-1-1.5c-0.2-0.2-0.3-0.3-0.4-0.4s-0.1-0.3-0.1-0.7S317.4,196.2,317.5,196.1z"/>
	<path class="st5" d="M328.7,212c0-0.5-0.6-1.1-1.9-1.7c-1.6-0.8-2.7-1.5-3.2-2s-0.8-1-0.8-1.6c0-1.6,0.8-2.8,2.3-3.9
		s2.8-1.5,3.8-1.5c0.6,0,1.1,0.1,1.4,0.3s0.4,0.6,0.4,1.1c0,0.2-0.1,0.4-0.3,0.6s-0.4,0.3-0.5,0.3c-0.1,0-0.3-0.1-0.5-0.2
		c-0.3-0.1-0.4-0.2-0.5-0.2c-0.4,0-1.2,0.3-2.4,0.9s-1.8,1.2-1.8,1.9c0,0.4,0.2,0.8,0.6,1.2s1.2,0.8,2.3,1.3
		c0.9,0.4,1.6,0.9,2.1,1.4s0.8,1,0.8,1.7c0,1.2-0.8,2.1-2.5,2.8s-3.2,1-4.7,1c-1.3,0-1.9-0.4-1.9-1.3c0-0.3,0.1-0.5,0.4-0.7
		s0.6-0.2,0.9-0.2c0.1,0,0.3,0,0.7,0.1c0.3,0.1,0.5,0.1,0.6,0.1c0.9,0,1.8-0.1,2.8-0.4S328.5,212.4,328.7,212z"/>
	<path class="st5" d="M269.9,226.1c0,0.3-0.3,1.4-0.8,3.3c-0.2,0.9-0.4,1.6-0.4,2.2c0,0.4-0.1,0.8-0.2,1.3c-0.3,2-0.5,3.4-0.5,4.1
		c0,1.1,0.1,2.2,0.2,3.2c0.1,0.6,0,1.1-0.3,1.3s-0.6,0.4-0.9,0.4c-0.4,0-0.7-0.2-0.9-0.7s-0.2-1.2-0.2-2.3c0-1.1,0.2-2.6,0.5-4.6
		c0.1-0.7,0.2-1.2,0.2-1.3c0-0.3,0-0.5,0.1-0.8c0-0.3,0.1-0.5,0.1-0.8c0-0.7,0.2-1.7,0.4-2.8c0.2-0.9,0.3-1.7,0.4-2.3
		c0.1-0.5,0.1-0.8,0.2-0.9s0.3-0.3,0.5-0.5s0.5-0.3,0.7-0.3c0.3,0,0.6,0.2,0.7,0.5S269.9,225.7,269.9,226.1z"/>
	<path class="st5" d="M280.6,232.7c-0.4,0-0.8,0.3-1.3,0.8s-1.2,1.7-2.2,3.6c-1.3,2.5-2.1,3.9-2.5,4.2s-0.7,0.5-0.9,0.5
		c-0.9,0-1.4-0.4-1.4-1.3c0-0.4,0.1-0.9,0.2-1.6c0.4-2.4,0.6-4.8,0.6-7.5c0-0.3,0.1-0.6,0.4-1s0.5-0.5,0.7-0.5
		c0.4,0,0.7,0.1,0.9,0.4s0.3,0.8,0.3,1.5c0,0.8-0.2,2.4-0.7,4.9c-0.2,0.8-0.2,1.3-0.2,1.5c0,0.1,0,0.2,0.1,0.2
		c0.1,0,0.7-0.9,1.6-2.8c1-1.9,1.8-3.2,2.6-4s1.5-1.2,2.4-1.2c0.7,0,1.3,0.3,1.7,1s0.8,1.8,1,3.5c0.2,1.9,0.4,3.1,0.6,3.6
		s0.5,0.7,0.8,0.7c0.2,0,0.5-0.1,0.9-0.3c0.1,0,0.1,0,0.1,0c0.3,0,0.5,0.2,0.5,0.6c0,0.3-0.2,0.7-0.7,1.1s-1,0.6-1.7,0.6
		c-0.7,0-1.2-0.3-1.5-0.8s-0.7-1.9-0.9-4.2C281.8,233.8,281.3,232.7,280.6,232.7z"/>
	<path class="st5" d="M296.5,232.7c-0.4,0-0.8,0.3-1.3,0.8s-1.2,1.7-2.2,3.6c-1.3,2.5-2.1,3.9-2.5,4.2s-0.7,0.5-0.9,0.5
		c-0.9,0-1.4-0.4-1.4-1.3c0-0.4,0.1-0.9,0.2-1.6c0.4-2.4,0.6-4.8,0.6-7.5c0-0.3,0.1-0.6,0.4-1s0.5-0.5,0.7-0.5
		c0.4,0,0.7,0.1,0.9,0.4s0.3,0.8,0.3,1.5c0,0.8-0.2,2.4-0.7,4.9c-0.2,0.8-0.2,1.3-0.2,1.5c0,0.1,0,0.2,0.1,0.2
		c0.1,0,0.7-0.9,1.6-2.8c1-1.9,1.8-3.2,2.6-4s1.5-1.2,2.4-1.2c0.7,0,1.3,0.3,1.7,1s0.8,1.8,1,3.5c0.2,1.9,0.4,3.1,0.6,3.6
		s0.5,0.7,0.8,0.7c0.2,0,0.5-0.1,0.9-0.3c0.1,0,0.1,0,0.1,0c0.3,0,0.5,0.2,0.5,0.6c0,0.3-0.2,0.7-0.7,1.1s-1,0.6-1.7,0.6
		c-0.7,0-1.2-0.3-1.5-0.8s-0.7-1.9-0.9-4.2C297.6,233.8,297.2,232.7,296.5,232.7z"/>
</g>
<polygon class="st6" points="382.2,21.7 328.7,58.7 328.7,126.3 435.7,126.3 435.7,58.7 "/>
<g>
	<path class="st5" d="M354.4,70.7c0.4,0.3,1.4,1,2.8,2.2c1.5,1.2,2.7,2.1,3.5,2.6s1.4,0.8,1.7,0.9s1,0.2,1.9,0.2c0,0.1,0,0.2,0,0.4
		c0,0.5-0.1,0.9-0.4,1.2s-0.6,0.4-1.1,0.4c-0.5,0-1-0.2-1.6-0.5s-1.8-1.1-3.5-2.4l-2.7-2c-0.9-0.7-1.8-1.3-2.6-1.6
		c-0.2,0-0.4,0.1-0.7,0.3c-0.2,0.5-0.4,1.1-0.5,1.9s-0.2,1.3-0.2,1.7c-0.1,2.1-0.6,3.2-1.3,3.2c-0.3,0-0.5-0.1-0.7-0.3
		s-0.3-0.5-0.3-0.8c0-0.2,0.1-0.5,0.2-1c0.2-1,0.6-3.8,1-8.4c0.1-1.4,0.3-2.9,0.5-4.3s0.4-2.3,0.5-2.6s0.3-0.5,0.4-0.6
		s0.4-0.2,0.5-0.2c0.7,0,1.1,0.4,1.1,1.3c-0.5,2.2-0.9,4.3-1,6.2c0,0.6-0.1,1.2-0.2,1.8c0,0,0,0.1,0,0.1s0,0,0.1,0s0.3-0.2,0.7-0.5
		s0.9-0.7,1.4-1.1s0.9-0.8,1.2-1.1c0.2-0.2,0.4-0.4,0.7-0.7c1-0.9,1.7-1.6,2.2-2.1s0.9-1.1,1.3-1.8c0.6-1,1-1.5,1.2-1.5
		c0.3,0,0.6,0.1,0.9,0.4s0.4,0.6,0.4,0.9c0,0.8-1.2,2.2-3.6,4.2c-0.5,0.5-0.9,0.8-1,0.9C357,68.4,356.1,69.2,354.4,70.7z"/>
	<path class="st5" d="M368.8,73.6c0.1-0.1,0.2-0.3,0.3-0.6c0.5-1.2,1-2.2,1.5-2.9s0.9-1.4,1.5-2s1-1.1,1.5-1.4s0.8-0.6,1.2-0.7
		s0.7-0.2,1-0.2c0.7,0,1.2,0.2,1.7,0.6s0.6,0.9,0.6,1.4c0,0.2-0.1,0.5-0.2,0.7s-0.4,0.3-0.7,0.3c-0.3,0-0.6-0.1-0.9-0.4
		c-0.3-0.3-0.6-0.4-0.9-0.4c-0.8,0-1.9,1-3.4,3s-2.3,4.1-2.6,6.5c-0.1,0.6-0.2,1-0.4,1.2s-0.5,0.3-0.9,0.3c-0.4,0-0.7-0.3-0.8-0.9
		s-0.3-1.5-0.3-2.9c0-0.4,0-1.2,0.1-2.4c0-1.5,0.1-2.7,0.3-3.6c0-0.1,0.1-0.5,0.1-1c0.1-0.6,0.1-1,0.2-1.3s0.3-0.5,0.5-0.7
		s0.5-0.3,0.8-0.3c0.3,0,0.5,0.1,0.7,0.3s0.2,0.4,0.2,0.6c0,0.3-0.1,0.7-0.2,1.3c-0.2,0.6-0.3,1-0.3,1.3c0,0.3-0.1,0.5-0.1,0.8
		c-0.1,0.3-0.2,1.2-0.2,2.6l0,0.4V73.6z"/>
	<path class="st5" d="M386.5,73.9c-1.1,1.5-2.2,2.6-3.2,3.3s-2.1,1.1-2.9,1.1c-0.6,0-1.1-0.3-1.6-0.8s-0.7-1.2-0.7-2
		c0-2.1,0.9-4.3,2.8-6.6s3.7-3.6,5.5-3.6c0.7,0,1.1,0.4,1.5,1.1c0.1,0.3,0.3,0.4,0.5,0.4c0.6,0,0.9,0.2,0.9,0.7c0,0.2,0,0.6-0.1,1
		c-0.4,2.3-0.6,3.9-0.6,4.9c0,1.9,0.4,3,1.1,3.4c0.3,0.2,0.5,0.4,0.5,0.7c0,0.2-0.2,0.5-0.5,0.7s-0.7,0.4-1,0.4
		c-0.6,0-1.1-0.4-1.5-1.2S386.5,75.5,386.5,73.9z M385.8,67.3c-1,0-2.2,1-3.6,2.9s-2.1,3.5-2.1,4.8c0,0.9,0.3,1.3,0.9,1.3
		c0.9,0,2.1-0.9,3.6-2.6s2.3-3.3,2.3-4.8C386.9,67.9,386.5,67.3,385.8,67.3z"/>
	<path class="st5" d="M402.6,78.1c-0.2-0.1-0.4-0.2-0.6-0.3c-0.7-0.3-1.6-0.5-2.8-0.5c-0.7,0-1.8,0.1-3.4,0.4s-2.7,0.7-3.2,1.2
		c-0.4,0.4-0.8,0.5-1.3,0.5c-0.2,0-0.5-0.1-0.8-0.2s-0.5-0.3-0.5-0.6c0.4-0.4,0.9-0.9,1.5-1.6c3.5-3.6,6.2-6.5,8-8.9
		c0-0.1-0.2-0.1-0.4-0.1c-0.4,0-1.3,0.1-2.6,0.3c-0.6,0.1-1.2,0.1-1.9,0.1c-1.6,0-2.4-0.4-2.4-1.3c0-0.6,0.4-1,1.1-1
		c0,0,0.1,0,0.2,0.1c0.6,0.2,1.2,0.4,2,0.4c1.1,0,2.2-0.1,3.6-0.3c0.1,0,0.3,0,0.5-0.1c0.2,0,0.4,0,0.6-0.1c0.5-0.1,0.8-0.1,1.1-0.1
		s0.5,0.1,0.8,0.2s0.4,0.4,0.4,0.7l0,0c-0.2,0.7-2.2,3.1-6.2,7.4c-1,1-1.5,1.6-1.5,1.8c0,0.1,0.1,0.1,0.2,0.1c0.1,0,0.7-0.1,1.6-0.3
		c1.8-0.4,3.2-0.6,4.2-0.6c1.5,0,2.2,0.5,2.2,1.4C403,77.3,402.9,77.8,402.6,78.1z"/>
	<path class="st5" d="M413.3,74.1c-1.4,1.3-2.7,2.2-3.8,2.7s-1.9,0.8-2.5,0.8c-0.8,0-1.4-0.3-1.8-1s-0.6-1.4-0.6-2.3
		c0-1.2,0.2-2.7,0.7-4.5s0.9-2.8,1.1-3.2s0.6-0.5,1.1-0.5c0.2,0,0.4,0.1,0.5,0.4s0.2,0.6,0.2,0.9c0,0.2-0.1,0.4-0.3,0.8
		c-0.4,0.7-0.6,1.1-0.7,1.2s-0.2,0.5-0.5,1.4s-0.4,1.7-0.4,2.4c0,0.3,0.1,0.7,0.2,1.2s0.4,0.8,0.8,0.8c0.4,0,1-0.1,1.6-0.4
		s1.3-0.7,2.1-1.3s1.3-1.1,1.6-1.4s0.5-0.8,0.6-1.3s0.2-1.5,0.2-3s0.4-2.3,1.1-2.3c0.4,0,0.7,0.1,0.8,0.3s0.2,0.6,0.2,1.3
		c0,0.5,0,1.2-0.1,1.9c-0.1,1-0.1,1.7-0.2,2.1c-0.1,2.1-0.4,4.3-0.8,6.5s-1.1,4-2,5.4s-2,2.2-3.6,2.2c-1.5,0-2.9-0.4-4.1-1.2
		s-1.8-1.5-1.8-2c0-0.3,0.1-0.5,0.2-0.8s0.3-0.4,0.5-0.4c0.1,0,0.2,0.1,0.3,0.2c1,1.6,2.6,2.4,4.8,2.4c1.1,0,2.1-1,2.9-3
		s1.2-3.9,1.3-5.6C413.2,74.7,413.2,74.4,413.3,74.1z"/>
	<path class="st5" d="M367.9,97.7c0.4,0.3,1.4,1,2.8,2.2c1.5,1.2,2.7,2.1,3.5,2.6s1.4,0.8,1.7,0.9s1,0.2,1.9,0.2c0,0.1,0,0.2,0,0.4
		c0,0.5-0.1,0.9-0.4,1.2s-0.6,0.4-1.1,0.4c-0.5,0-1-0.2-1.6-0.5s-1.8-1.1-3.5-2.4l-2.7-2c-0.9-0.7-1.8-1.3-2.6-1.6
		c-0.2,0-0.4,0.1-0.7,0.3c-0.2,0.5-0.4,1.1-0.5,1.9s-0.2,1.3-0.2,1.7c-0.1,2.1-0.6,3.2-1.3,3.2c-0.3,0-0.5-0.1-0.7-0.3
		s-0.3-0.5-0.3-0.8c0-0.2,0.1-0.5,0.2-1c0.2-1,0.6-3.8,1-8.4c0.1-1.4,0.3-2.9,0.5-4.3s0.4-2.3,0.5-2.6s0.3-0.5,0.4-0.6
		s0.4-0.2,0.5-0.2c0.7,0,1.1,0.4,1.1,1.3c-0.5,2.2-0.9,4.3-1,6.2c0,0.6-0.1,1.2-0.2,1.8c0,0,0,0.1,0,0.1s0,0,0.1,0s0.3-0.2,0.7-0.5
		s0.9-0.7,1.4-1.1s0.9-0.8,1.2-1.1c0.2-0.2,0.4-0.4,0.7-0.7c1-0.9,1.7-1.6,2.2-2.1s0.9-1.1,1.3-1.8c0.6-1,1-1.5,1.2-1.5
		c0.3,0,0.6,0.1,0.9,0.4s0.4,0.6,0.4,0.9c0,0.8-1.2,2.2-3.6,4.2c-0.5,0.5-0.9,0.8-1,0.9C370.6,95.4,369.6,96.2,367.9,97.7z"/>
	<path class="st5" d="M387.9,100.9c-1.1,1.5-2.2,2.6-3.2,3.3s-2.1,1.1-2.9,1.1c-0.6,0-1.1-0.3-1.6-0.8s-0.7-1.2-0.7-2
		c0-2.1,0.9-4.3,2.8-6.6s3.7-3.6,5.5-3.6c0.7,0,1.1,0.4,1.5,1.1c0.1,0.3,0.3,0.4,0.5,0.4c0.6,0,0.9,0.2,0.9,0.7c0,0.2,0,0.6-0.1,1
		c-0.4,2.3-0.6,3.9-0.6,4.9c0,1.9,0.4,3,1.1,3.4c0.3,0.2,0.5,0.4,0.5,0.7c0,0.2-0.2,0.5-0.5,0.7s-0.7,0.4-1,0.4
		c-0.6,0-1.1-0.4-1.5-1.2S387.9,102.5,387.9,100.9z M387.2,94.3c-1,0-2.2,1-3.6,2.9s-2.1,3.5-2.1,4.8c0,0.9,0.3,1.3,0.9,1.3
		c0.9,0,2.1-0.9,3.6-2.6s2.3-3.3,2.3-4.8C388.3,94.9,387.9,94.3,387.2,94.3z"/>
	<path class="st5" d="M398.8,93.4c0.8-0.1,1.6-0.1,2.3-0.2c0.7-0.1,1.3-0.1,1.8-0.1c0.6,0,1,0.1,1.1,0.2s0.2,0.3,0.2,0.6
		c0,0.6-0.4,1-1.3,1c-1.1,0.1-2.2,0.2-3.1,0.3s-1.5,0.2-1.5,0.3s-0.3,1-0.7,2.8s-0.6,2.9-0.6,3.5c0,0.9,0.1,1.4,0.3,1.7
		s0.6,0.4,1,0.4c0.7,0,1.6-0.5,2.8-1.5c0.5-0.4,0.8-0.6,1.1-0.6c0.3,0,0.5,0.2,0.5,0.5c0,0.6-0.5,1.3-1.6,2.2
		c-1.1,0.9-2.2,1.3-3.3,1.3c-1.9,0-2.8-1.1-2.8-3.3c0-0.8,0.2-2.1,0.6-3.7c0.4-1.7,0.6-2.7,0.6-3c0-0.1-0.1-0.2-0.3-0.2l-1.2,0.1
		c-1,0-1.5-0.4-1.5-1.2c0-0.5,0.2-0.7,0.7-0.7h2.4c0.2,0,0.3-0.1,0.4-0.2s0.3-0.6,0.6-1.5s0.5-1.7,0.6-2.5c0.2-0.8,0.6-1.2,1.1-1.2
		c0.3,0,0.6,0.1,0.8,0.4s0.3,0.5,0.3,0.7c0,0.1-0.1,0.7-0.4,1.7L398.8,93.4z"/>
</g>
<polygon class="st7" points="509.5,133 456,170 456,237.7 563,237.7 563,170 "/>
<g>
	<path class="st5" d="M475.4,174.4c2.3-0.4,4-0.6,5-0.6c1.6,0,3,0.4,3.9,1.2s1.5,1.8,1.5,2.9s-0.5,2.3-1.6,3.3s-2.4,1.9-3.9,2.5
		c-0.2,0.1-0.3,0.2-0.3,0.2c0,0.1,0.8,0.8,2.4,2.1s3.1,2.3,4.4,3.1c0.4,0.2,0.6,0.5,0.6,0.9c0,0.3-0.1,0.5-0.4,0.7s-0.5,0.4-0.7,0.4
		c-0.5,0-1.2-0.4-2.2-1.1s-2.1-1.6-3.1-2.5c-2.4-2-3.7-3-3.9-3c-0.5,0-0.9-0.1-1.1-0.2s-0.3-0.4-0.3-0.7c0-0.3,0.1-0.6,0.4-0.8
		s0.6-0.3,1-0.3c0.1,0,0.3,0,0.6,0.1c0.3,0,0.5,0.1,0.6,0.1c0.6,0,1.7-0.5,3.2-1.4s2.3-2,2.3-3.3c0-0.7-0.3-1.2-1-1.7
		s-1.5-0.7-2.6-0.7c-0.8,0-1.6,0.1-2.3,0.2s-1.3,0.2-1.5,0.3s-0.4,0.3-0.5,0.6s-0.4,1.4-0.7,3.1s-0.6,3.4-0.7,4.9s-0.3,2.7-0.3,3.4
		c0,0.6,0,1.1,0.1,1.5c0.1,0.4,0.1,0.7,0.1,1c0,0.2-0.1,0.5-0.4,0.7s-0.5,0.4-0.8,0.4c-0.8,0-1.2-0.7-1.2-2c0-3.1,0.6-7.3,1.7-12.5
		c0.1-0.3,0.1-0.4,0.1-0.5s0-0.1-0.1-0.2c-0.3-0.5-0.5-0.8-0.5-1c0-0.3,0.1-0.6,0.4-0.8s0.6-0.3,0.8-0.3L475.4,174.4z"/>
	<path class="st5" d="M492.6,191.6c-1.1,0-2-0.4-2.6-1.2s-1-1.8-1-3c0-2,0.7-4,2-6s3-2.9,4.9-2.9c1.3,0,2.3,0.5,3,1.4
		s1.2,2.1,1.2,3.4c0,2-0.8,3.9-2.4,5.6S494.3,191.6,492.6,191.6z M491,187c0,0.8,0.2,1.4,0.5,1.9s0.8,0.8,1.3,0.8
		c1.2,0,2.3-0.6,3.5-1.9s1.8-2.7,1.8-4.3c0-1-0.2-1.7-0.7-2.3s-1.1-0.9-1.8-0.9c-1.3,0-2.3,0.8-3.2,2.3S491,185.6,491,187z"/>
	<path class="st5" d="M508.6,188.3c0-0.5-0.6-1.1-1.9-1.7c-1.6-0.8-2.7-1.5-3.2-2s-0.8-1-0.8-1.6c0-1.6,0.8-2.8,2.3-3.9
		s2.8-1.5,3.8-1.5c0.6,0,1.1,0.1,1.4,0.3s0.4,0.6,0.4,1.1c0,0.2-0.1,0.4-0.3,0.6s-0.4,0.3-0.5,0.3c-0.1,0-0.3-0.1-0.5-0.2
		c-0.3-0.1-0.4-0.2-0.5-0.2c-0.4,0-1.2,0.3-2.4,0.9s-1.8,1.2-1.8,1.9c0,0.4,0.2,0.8,0.6,1.2s1.2,0.8,2.3,1.3
		c0.9,0.4,1.6,0.9,2.1,1.4s0.8,1,0.8,1.7c0,1.2-0.8,2.1-2.5,2.8s-3.2,1-4.7,1c-1.3,0-1.9-0.4-1.9-1.3c0-0.3,0.1-0.5,0.4-0.7
		s0.6-0.2,0.9-0.2c0.1,0,0.3,0,0.7,0.1c0.3,0.1,0.5,0.1,0.6,0.1c0.9,0,1.8-0.1,2.8-0.4S508.3,188.7,508.6,188.3z"/>
	<path class="st5" d="M515,188.4c0,0.6,0.1,1.3,0.2,2c0,0.1,0,0.3,0,0.4c0,0.1-0.1,0.3-0.4,0.5s-0.5,0.3-0.8,0.3
		c-0.8,0-1.1-0.7-1.1-2.1c0-1.4,0.3-3.7,0.9-6.8c0.2-1.1,0.3-1.8,0.3-2c0-0.5,0.1-0.9,0.3-1.3s0.4-0.5,0.8-0.5
		c0.4,0,0.7,0.1,0.9,0.3s0.3,0.4,0.3,0.6s-0.1,0.5-0.2,0.9c-0.6,2.1-0.9,3.5-1.1,4.4S515,187.2,515,188.4z M516.6,175.3
		c-0.2,0-0.3-0.2-0.4-0.5c0-0.1-0.1-0.2-0.1-0.4c-0.2-0.5-0.3-0.9-0.3-1.3c0-0.3,0.2-0.6,0.6-1s0.8-0.5,1.2-0.5
		c0.2,0,0.5,0.1,0.8,0.3s0.4,0.3,0.4,0.5c0,0.3-0.1,0.7-0.3,1.3s-0.5,1-0.9,1.2S516.8,175.3,516.6,175.3z"/>
	<path class="st5" d="M529.7,187c0,0.8-0.7,1.8-2.1,2.9s-2.9,1.7-4.4,1.7c-1.3,0-2.2-0.4-2.9-1.1s-1-1.8-1-3.1
		c0-2.2,0.8-4.4,2.3-6.4s3.2-3,4.9-3c0.6,0,1.1,0.2,1.4,0.6s0.6,0.8,0.6,1.4c0,1.2-0.6,2.4-1.8,3.5s-2.8,2.2-4.7,3.2
		c-0.4,0.2-0.6,0.5-0.6,0.8c0,0.6,0.2,1.2,0.6,1.6s0.9,0.6,1.7,0.6c1.7,0,3.4-0.9,5.1-2.8c0.3-0.3,0.5-0.4,0.6-0.4
		C529.6,186.4,529.7,186.6,529.7,187z M521.5,185.2c3.3-2,5-3.6,5-4.7c0-0.5-0.2-0.7-0.6-0.7c-0.7,0-1.5,0.5-2.4,1.6
		S521.9,183.7,521.5,185.2z"/>
	<path class="st5" d="M532.3,172.5c0-0.1,0.2-0.2,0.5-0.3s0.5-0.2,0.6-0.2s0.4,0.2,0.7,0.6l0.3,0.3c0.4,0.4,0.6,0.8,0.8,1.2
		c0.1,0.2,0.1,0.4,0.1,0.8c0,0.7-0.2,1.7-0.7,3s-1,2-1.7,2c-0.2,0-0.4-0.1-0.6-0.2s-0.3-0.3-0.3-0.5c0-0.4,0.2-0.7,0.5-1
		c0.7-0.7,1.1-1.5,1.1-2.5c0-0.4-0.3-0.9-1-1.5c-0.2-0.2-0.3-0.3-0.4-0.4s-0.1-0.3-0.1-0.7S532.3,172.5,532.3,172.5z"/>
	<path class="st5" d="M543.6,188.3c0-0.5-0.6-1.1-1.9-1.7c-1.6-0.8-2.7-1.5-3.2-2s-0.8-1-0.8-1.6c0-1.6,0.8-2.8,2.3-3.9
		s2.8-1.5,3.8-1.5c0.6,0,1.1,0.1,1.4,0.3s0.4,0.6,0.4,1.1c0,0.2-0.1,0.4-0.3,0.6s-0.4,0.3-0.5,0.3c-0.1,0-0.3-0.1-0.5-0.2
		c-0.3-0.1-0.4-0.2-0.5-0.2c-0.4,0-1.2,0.3-2.4,0.9s-1.8,1.2-1.8,1.9c0,0.4,0.2,0.8,0.6,1.2s1.2,0.8,2.3,1.3
		c0.9,0.4,1.6,0.9,2.1,1.4s0.8,1,0.8,1.7c0,1.2-0.8,2.1-2.5,2.8s-3.2,1-4.7,1c-1.3,0-1.9-0.4-1.9-1.3c0-0.3,0.1-0.5,0.4-0.7
		s0.6-0.2,0.9-0.2c0.1,0,0.3,0,0.7,0.1c0.3,0.1,0.5,0.1,0.6,0.1c0.9,0,1.8-0.1,2.8-0.4S543.3,188.7,543.6,188.3z"/>
	<path class="st5" d="M496.3,214.4c0.3,0,0.5,0.2,0.5,0.6c0,0.4-0.4,0.9-1.3,1.7s-1.9,1.3-3,1.7s-2.2,0.6-3.1,0.6
		c-1.4,0-2.6-0.5-3.8-1.4s-1.7-2.2-1.7-4c0-3.2,1.4-6.2,4.1-9.2s5.3-4.5,7.9-4.5c0.9,0,1.7,0.3,2.3,0.9s0.8,1.3,0.8,2
		c0,0.7,0,1.3-0.1,1.7s-0.3,0.8-0.7,1s-0.7,0.4-1,0.4c-0.2,0-0.3-0.1-0.5-0.2s-0.2-0.4-0.2-0.6c0-0.2,0.1-0.6,0.2-1.1
		c0.1-0.6,0.2-1,0.2-1.3c0-0.8-0.3-1.2-1-1.2c-1.1,0-2.4,0.6-4,1.9s-2.9,2.8-4,4.7s-1.7,3.7-1.7,5.3c0,1.1,0.3,2,1,2.7
		s1.5,1.1,2.7,1.1c0.7,0,1.5-0.2,2.5-0.5s1.9-0.8,2.7-1.4S496.1,214.4,496.3,214.4z"/>
	<path class="st5" d="M508.1,213.7c-1.1,1.5-2.2,2.6-3.2,3.3s-2.1,1.1-2.9,1.1c-0.6,0-1.1-0.3-1.6-0.8s-0.7-1.2-0.7-2
		c0-2.1,0.9-4.3,2.8-6.6s3.7-3.6,5.5-3.6c0.7,0,1.1,0.4,1.5,1.1c0.1,0.3,0.3,0.4,0.5,0.4c0.6,0,0.9,0.2,0.9,0.7c0,0.2,0,0.6-0.1,1
		c-0.4,2.3-0.6,3.9-0.6,4.9c0,1.9,0.4,3,1.1,3.4c0.3,0.2,0.5,0.4,0.5,0.7c0,0.2-0.2,0.5-0.5,0.7s-0.7,0.4-1,0.4
		c-0.6,0-1.1-0.4-1.5-1.2S508.1,215.2,508.1,213.7z M507.4,207.1c-1,0-2.2,1-3.6,2.9s-2.1,3.5-2.1,4.8c0,0.9,0.3,1.3,0.9,1.3
		c0.9,0,2.1-0.9,3.6-2.6s2.3-3.3,2.3-4.8C508.5,207.7,508.2,207.1,507.4,207.1z"/>
	<path class="st5" d="M516.6,218.5c-0.1,0.2-0.2,0.4-0.4,0.5s-0.5,0.2-0.7,0.2c-0.8,0-1.2-0.6-1.2-1.7c0-0.6,0.2-2.1,0.6-4.7
		c0.2-1.6,0.3-2.8,0.3-3.6c0-0.1-0.2-0.3-0.5-0.6c-0.3-0.2-0.5-0.4-0.5-0.6c0-0.3,0.3-0.7,0.8-1.1c0.4-0.3,0.6-0.6,0.7-1
		s0.2-0.9,0.3-1.6c0.4-2.4,1-4.2,1.9-5.2s1.9-1.6,3.2-1.6c0.7,0,1.3,0.2,1.8,0.7s0.7,1.1,0.7,1.8c0,0.6-0.1,1.2-0.4,1.9
		s-0.6,1.1-0.9,1.1c-0.3,0-0.4-0.1-0.4-0.4l0.1-1.1c0-1.5-0.4-2.3-1.3-2.3c-0.9,0-1.7,0.9-2.3,2.7s-0.9,3.3-0.9,4.4
		c0,0.4,0.2,0.5,0.7,0.5c2,0,3.2,0,3.6,0s0.5,0.1,0.5,0.5s-0.2,0.6-0.6,0.7s-1.3,0.3-2.6,0.5c-1.1,0.1-1.8,0.2-1.9,0.3
		c-0.5,2.9-0.8,5.5-0.8,7.8c0,0.7,0,1.2,0.1,1.5C516.6,218.3,516.6,218.4,516.6,218.5z"/>
	<path class="st5" d="M533.2,214c0,0.8-0.7,1.8-2.1,2.9s-2.9,1.7-4.4,1.7c-1.3,0-2.2-0.4-2.9-1.1s-1-1.8-1-3.1
		c0-2.2,0.8-4.4,2.3-6.4s3.2-3,4.9-3c0.6,0,1.1,0.2,1.4,0.6s0.6,0.8,0.6,1.4c0,1.2-0.6,2.4-1.8,3.5s-2.8,2.2-4.7,3.2
		c-0.4,0.2-0.6,0.5-0.6,0.8c0,0.6,0.2,1.2,0.6,1.6s0.9,0.6,1.7,0.6c1.7,0,3.4-0.9,5.1-2.8c0.3-0.3,0.5-0.4,0.6-0.4
		C533,213.4,533.2,213.6,533.2,214z M525,212.2c3.3-2,5-3.6,5-4.7c0-0.5-0.2-0.7-0.6-0.7c-0.7,0-1.5,0.5-2.4,1.6
		S525.4,210.7,525,212.2z"/>
</g>
<polygon class="st8" points="677.5,35.5 624,72.5 624,140.2 731,140.2 731,72.5 "/>
<g>
	<path class="st5" d="M645.7,78.4c-0.4-0.2-0.7-0.6-0.7-1.2c0-0.5,1-1,3.1-1.5s3.9-0.7,5.4-0.7c1.7,0,3.1,0.4,4.1,1.1
		s1.5,1.6,1.5,2.8c0,1.7-1,3.3-2.9,4.6s-4.5,2.4-7.7,3c-0.9,0.2-1.3,0.3-1.4,0.4s-0.2,0.8-0.2,2.1s-0.1,2.2-0.1,2.7
		c0,0.4-0.1,0.7-0.3,0.9s-0.5,0.4-0.8,0.4c-0.7,0-1-0.5-1-1.4c0-0.5,0.1-1.9,0.4-4.2l0.8-6.9c0-0.1,0-0.5,0-1S645.9,78.6,645.7,78.4
		z M648.2,77.8c-0.1,0.2-0.1,0.6-0.2,1.3c-0.1,1.1-0.2,2.3-0.4,3.6c-0.1,0.7-0.2,1.4-0.2,2.2c2.6-0.4,4.9-1.1,6.8-2.2s3-2.3,3-3.6
		c0-1.6-1.2-2.4-3.7-2.4C651.9,76.7,650.1,77.1,648.2,77.8z"/>
	<path class="st5" d="M662.7,89.7c0,0.6,0.1,1.3,0.2,2c0,0.1,0,0.3,0,0.4c0,0.1-0.1,0.3-0.4,0.5s-0.5,0.3-0.8,0.3
		c-0.8,0-1.1-0.7-1.1-2.1c0-1.4,0.3-3.7,0.9-6.8c0.2-1.1,0.3-1.8,0.3-2c0-0.5,0.1-0.9,0.3-1.3s0.4-0.5,0.8-0.5
		c0.4,0,0.7,0.1,0.9,0.3s0.3,0.4,0.3,0.6s-0.1,0.5-0.2,0.9c-0.6,2.1-0.9,3.5-1.1,4.4S662.7,88.5,662.7,89.7z M664.3,76.6
		c-0.2,0-0.3-0.2-0.4-0.5c0-0.1-0.1-0.2-0.1-0.4c-0.2-0.5-0.3-0.9-0.3-1.3c0-0.3,0.2-0.6,0.6-1s0.8-0.5,1.2-0.5
		c0.2,0,0.5,0.1,0.8,0.3s0.4,0.3,0.4,0.5c0,0.3-0.1,0.7-0.3,1.3s-0.5,1-0.9,1.2S664.5,76.6,664.3,76.6z"/>
	<path class="st5" d="M670.6,93c-1.2,0-2.1-0.3-2.7-1s-0.9-1.6-0.9-2.8c0-2,0.8-4.2,2.4-6.5s3.1-3.4,4.5-3.4c0.6,0,1.2,0.3,1.6,1
		s0.7,1.4,0.7,2.2c0,0.5-0.1,0.9-0.3,1.2s-0.4,0.5-0.6,0.5c-0.5,0-0.8-0.5-1-1.4c-0.2-1-0.5-1.5-0.9-1.5c-0.8,0-1.8,1-2.9,2.9
		s-1.7,3.6-1.7,4.9s0.8,2,2.3,2c1.1,0,2.5-0.5,4.1-1.6c0.5-0.4,0.9-0.6,1.2-0.6c0.3,0,0.4,0.2,0.4,0.5c0,0.6-0.7,1.3-2.1,2.2
		S671.9,93,670.6,93z"/>
	<path class="st5" d="M681.7,86.9c0.1-0.1,0.8-0.8,2.1-1.9c1.2-1.1,2.1-1.8,2.6-2.3c1.8-1.8,3.1-2.7,3.9-2.7c0.6,0,0.9,0.3,0.9,0.9
		c0,0.7-0.3,1.2-0.9,1.5c-0.8,0.4-1.8,1.1-3.1,2s-2,1.6-2,2c0,0.2,0.5,0.7,1.4,1.8s1.7,1.8,2.4,2.2s1.3,0.7,2,0.7l0.4,0
		c0.3,0,0.4,0.1,0.4,0.4c0,0.3-0.2,0.7-0.6,1s-1,0.5-1.7,0.5c-0.5,0-0.9-0.2-1.4-0.5s-1.3-1.2-2.5-2.6c-0.9-1.1-1.5-1.8-1.8-2.1
		s-0.4-0.3-0.6-0.3c-0.1,0-0.4,0.2-0.8,0.6s-0.7,0.7-0.8,0.9s-0.1,1-0.1,2.4v0.6c0,0.3-0.1,0.5-0.4,0.8s-0.6,0.3-0.9,0.3
		c-0.3,0-0.6-0.1-0.8-0.3s-0.3-0.4-0.3-0.6c0-0.3,0.1-0.9,0.3-2c0.3-1.5,0.6-3.5,0.8-6.1c0.6-6,1-9.4,1.3-10.1s0.8-1.2,1.3-1.2
		c0.2,0,0.4,0.1,0.5,0.3s0.2,0.5,0.2,0.8c0,0.6-0.3,2.3-0.8,5C682.4,81.7,682,84.3,681.7,86.9z"/>
	<path class="st5" d="M697.7,72.5c0.6,0,0.8,0.4,0.8,1.1c0,0.6-0.3,2.2-1,4.6c-0.4,1.5-0.8,3.2-1,5s-0.4,3.3-0.4,4.3
		c0,1.3,0.1,2.6,0.2,3.8c0,0.2,0,0.4,0,0.5c0,0.4-0.1,0.7-0.4,1s-0.5,0.4-0.8,0.4c-0.4,0-0.7-0.3-0.9-0.8s-0.2-1.3-0.2-2.5
		c0-2.6,0.3-5.9,0.9-9.7s1.1-6.1,1.5-6.8S697.3,72.5,697.7,72.5z"/>
	<path class="st5" d="M710.4,88.4c0,0.8-0.7,1.8-2.1,2.9s-2.9,1.7-4.4,1.7c-1.3,0-2.2-0.4-2.9-1.1s-1-1.8-1-3.1
		c0-2.2,0.8-4.4,2.3-6.4s3.2-3,4.9-3c0.6,0,1.1,0.2,1.4,0.6s0.6,0.8,0.6,1.4c0,1.2-0.6,2.4-1.8,3.5s-2.8,2.2-4.7,3.2
		c-0.4,0.2-0.6,0.5-0.6,0.8c0,0.6,0.2,1.2,0.6,1.6s0.9,0.6,1.7,0.6c1.7,0,3.4-0.9,5.1-2.8c0.3-0.3,0.5-0.4,0.6-0.4
		C710.3,87.8,710.4,88,710.4,88.4z M702.2,86.5c3.3-2,5-3.6,5-4.7c0-0.5-0.2-0.7-0.6-0.7c-0.7,0-1.5,0.5-2.4,1.6
		S702.6,85,702.2,86.5z"/>
	<path class="st5" d="M664.6,115.8c0.3,0,0.5,0.2,0.5,0.6c0,0.4-0.4,0.9-1.3,1.7s-1.9,1.3-3,1.7s-2.2,0.6-3.1,0.6
		c-1.4,0-2.6-0.5-3.8-1.4s-1.7-2.2-1.7-4c0-3.2,1.4-6.2,4.1-9.2s5.3-4.5,7.9-4.5c0.9,0,1.7,0.3,2.3,0.9s0.8,1.3,0.8,2
		c0,0.7,0,1.3-0.1,1.7s-0.3,0.8-0.7,1s-0.7,0.4-1,0.4c-0.2,0-0.3-0.1-0.5-0.2s-0.2-0.4-0.2-0.6c0-0.2,0.1-0.6,0.2-1.1
		c0.1-0.6,0.2-1,0.2-1.3c0-0.8-0.3-1.2-1-1.2c-1.1,0-2.4,0.6-4,1.9s-2.9,2.8-4,4.7s-1.7,3.7-1.7,5.3c0,1.1,0.3,2,1,2.7
		s1.5,1.1,2.7,1.1c0.7,0,1.5-0.2,2.5-0.5s1.9-0.8,2.7-1.4S664.4,115.8,664.6,115.8z"/>
	<path class="st5" d="M673.1,99.5c0.6,0,0.8,0.4,0.8,1.1c0,0.6-0.3,2.2-1,4.6c-0.4,1.5-0.8,3.2-1,5s-0.4,3.3-0.4,4.3
		c0,1.3,0.1,2.6,0.2,3.8c0,0.2,0,0.4,0,0.5c0,0.4-0.1,0.7-0.4,1s-0.5,0.4-0.8,0.4c-0.4,0-0.7-0.3-0.9-0.8s-0.2-1.3-0.2-2.5
		c0-2.6,0.3-5.9,0.9-9.7s1.1-6.1,1.5-6.8S672.8,99.5,673.1,99.5z"/>
	<path class="st5" d="M684.1,114.2c-1,1.7-2,3-3.1,3.9s-2,1.4-2.9,1.4c-0.5,0-1-0.3-1.6-0.9s-0.8-1.5-0.8-2.8c0-1,0.2-2.5,0.7-4.5
		c0.4-1.7,0.6-2.8,0.6-3.5c0.2-0.5,0.6-0.7,1.1-0.7c0.3,0,0.6,0.1,0.8,0.3s0.3,0.5,0.3,0.7c0,0.5-0.2,1.3-0.6,2.3
		c-0.7,2-1.1,3.6-1.1,5.1c0,1.3,0.3,1.9,0.9,1.9c0.8,0,1.7-0.6,2.9-1.9s2.2-3.1,3-5.4c0.3-0.9,0.6-1.5,0.8-1.8s0.5-0.4,0.8-0.4
		c0.5,0,0.8,0.4,0.8,1.1c0,0.1-0.1,0.4-0.2,0.9c-0.5,1.7-0.7,3.3-0.7,4.9c0,1.8,0.3,3,0.9,3.6c0.3,0.3,0.5,0.5,0.5,0.7
		c0,0.2-0.2,0.4-0.5,0.6s-0.6,0.3-0.9,0.3c-0.5,0-1-0.4-1.3-1.2s-0.5-2-0.5-3.6v-0.4C684.1,114.5,684.1,114.4,684.1,114.2z"/>
	<path class="st5" d="M692.5,112.7c1-1.8,2.2-3.3,3.6-4.4s2.6-1.7,3.8-1.7c0.6,0,1.1,0.3,1.6,0.9s0.6,1.3,0.6,2.1
		c0,2.4-0.9,4.7-2.7,6.8s-3.8,3.2-5.8,3.2c-0.6,0-1.1-0.2-1.5-0.5s-0.7-0.7-0.8-1.1c0-0.4-0.1-0.6-0.3-0.8c-0.3-0.3-0.5-0.7-0.5-1.1
		c0-0.7,0.2-2.2,0.6-4.6l1.2-7c0.4-2.4,0.7-3.8,0.9-4.4s0.4-0.9,0.6-1.1s0.5-0.3,0.9-0.3c0.5,0,0.8,0.5,0.8,1.4
		c0,0.9-0.3,2.2-0.9,3.8C694,105.5,693.3,108.4,692.5,112.7z M692.3,116.6c0.4,0.8,0.9,1.1,1.5,1.1c0.9,0,1.8-0.4,2.8-1.1
		s1.8-1.8,2.6-3.1s1.1-2.5,1.1-3.4c0-0.4-0.1-0.8-0.2-1.1s-0.3-0.4-0.6-0.4c-1.1,0-2.4,0.9-4,2.7S692.8,114.8,692.3,116.6z"/>
</g>
<polygon class="st9" points="150.2,46.8 96.7,83.8 96.7,151.5 203.7,151.5 203.7,83.8 "/>
<g>
	<path class="st5" d="M132.5,85.8c0.2,0,0.5,0.1,0.7,0.3s0.3,0.4,0.3,0.6c0,1.9-0.2,4.5-0.7,7.6s-1.2,5.5-2.2,7.1s-2.3,2.3-4,2.3
		c-1.3,0-2.6-0.5-4-1.4s-2.1-1.7-2.1-2.4c0-0.7,0.4-1,1.2-1c0.2,0,0.6,0.2,1,0.6c1.4,1.4,2.8,2.2,4,2.2c1.1,0,1.9-0.6,2.6-1.7
		s1.2-3,1.6-5.7s0.6-5.1,0.6-7.5c0-0.2,0.1-0.5,0.4-0.7S132.3,85.8,132.5,85.8z"/>
	<path class="st5" d="M139.6,104.1c-1.1,0-2-0.4-2.6-1.2s-1-1.8-1-3c0-2,0.7-4,2-6s3-2.9,4.9-2.9c1.3,0,2.3,0.5,3,1.4
		s1.2,2.1,1.2,3.4c0,2-0.8,3.9-2.4,5.6S141.3,104.1,139.6,104.1z M137.9,99.6c0,0.8,0.2,1.4,0.5,1.9s0.8,0.8,1.3,0.8
		c1.2,0,2.3-0.6,3.5-1.9s1.8-2.7,1.8-4.3c0-1-0.2-1.7-0.7-2.3s-1.1-0.9-1.8-0.9c-1.3,0-2.3,0.8-3.2,2.3S137.9,98.2,137.9,99.6z"/>
	<path class="st5" d="M159.7,99.5c0,0.8-0.7,1.8-2.1,2.9s-2.9,1.7-4.4,1.7c-1.3,0-2.2-0.4-2.9-1.1s-1-1.8-1-3.1
		c0-2.2,0.8-4.4,2.3-6.4s3.2-3,4.9-3c0.6,0,1.1,0.2,1.4,0.6s0.6,0.8,0.6,1.4c0,1.2-0.6,2.4-1.8,3.5s-2.8,2.2-4.7,3.2
		c-0.4,0.2-0.6,0.5-0.6,0.8c0,0.6,0.2,1.2,0.6,1.6s0.9,0.6,1.7,0.6c1.7,0,3.4-0.9,5.1-2.8c0.3-0.3,0.5-0.4,0.6-0.4
		C159.5,98.9,159.7,99.1,159.7,99.5z M151.5,97.7c3.3-2,5-3.6,5-4.7c0-0.5-0.2-0.7-0.6-0.7c-0.7,0-1.5,0.5-2.4,1.6
		S151.9,96.2,151.5,97.7z"/>
	<path class="st5" d="M162.3,85c0-0.1,0.2-0.2,0.5-0.3s0.5-0.2,0.6-0.2s0.4,0.2,0.7,0.6l0.3,0.3c0.4,0.4,0.6,0.8,0.8,1.2
		c0.1,0.2,0.1,0.4,0.1,0.8c0,0.7-0.2,1.7-0.7,3s-1,2-1.7,2c-0.2,0-0.4-0.1-0.6-0.2s-0.3-0.3-0.3-0.5c0-0.4,0.2-0.7,0.5-1
		c0.7-0.7,1.1-1.5,1.1-2.5c0-0.4-0.3-0.9-1-1.5c-0.2-0.2-0.3-0.3-0.4-0.4s-0.1-0.3-0.1-0.7S162.3,85,162.3,85z"/>
	<path class="st5" d="M173.5,100.8c0-0.5-0.6-1.1-1.9-1.7c-1.6-0.8-2.7-1.5-3.2-2s-0.8-1-0.8-1.6c0-1.6,0.8-2.8,2.3-3.9
		s2.8-1.5,3.8-1.5c0.6,0,1.1,0.1,1.4,0.3s0.4,0.6,0.4,1.1c0,0.2-0.1,0.4-0.3,0.6s-0.4,0.3-0.5,0.3c-0.1,0-0.3-0.1-0.5-0.2
		c-0.3-0.1-0.4-0.2-0.5-0.2c-0.4,0-1.2,0.3-2.4,0.9s-1.8,1.2-1.8,1.9c0,0.4,0.2,0.8,0.6,1.2s1.2,0.8,2.3,1.3
		c0.9,0.4,1.6,0.9,2.1,1.4s0.8,1,0.8,1.7c0,1.2-0.8,2.1-2.5,2.8s-3.2,1-4.7,1c-1.3,0-1.9-0.4-1.9-1.3c0-0.3,0.1-0.5,0.4-0.7
		s0.6-0.2,0.9-0.2c0.1,0,0.3,0,0.7,0.1c0.3,0.1,0.5,0.1,0.6,0.1c0.9,0,1.8-0.1,2.8-0.4S173.3,101.2,173.5,100.8z"/>
	<path class="st5" d="M119.1,116.4c0-0.3-0.2-0.5-0.5-0.6c-0.6-0.2-1-0.4-1-0.8c0-0.3,0.1-0.6,0.4-0.8s0.5-0.4,0.8-0.4l1.6,0
		c0.8,0,1.8-0.1,3-0.2c1.2-0.1,2.2-0.2,2.8-0.2c2.2,0,3.9,0.6,5.2,1.8s2,2.8,2,4.8c0,2.2-0.9,4.2-2.8,6s-4.5,3.1-8,3.9
		c-1.4,0.3-2.3,0.7-2.8,1c-0.6,0.4-1.2,0.7-1.6,0.7c-0.3,0-0.6-0.2-0.8-0.5s-0.3-0.6-0.3-0.8c0-0.1,0.1-0.3,0.2-0.6
		c0.2-0.4,0.3-0.7,0.3-1.1s0.1-1,0.2-1.9c0-0.9,0.2-2.4,0.4-4.5s0.4-3.5,0.6-4.4C119.1,117.2,119.1,116.6,119.1,116.4z M121.3,115.6
		c-0.9,5.6-1.4,9.5-1.4,11.8c0,0.5,0.1,0.9,0.2,1.1c0.1,0.1,0.2,0.1,0.4,0.1c0.5,0,1.8-0.3,3.9-1s3.8-1.7,5.2-3s2-2.9,2-4.7
		c0-1.4-0.5-2.6-1.5-3.5s-2.4-1.3-4-1.3c-1,0-2.2,0.1-3.7,0.3C121.9,115.5,121.6,115.5,121.3,115.6z"/>
	<path class="st5" d="M138.1,127.9c0,0.6,0.1,1.3,0.2,2c0,0.1,0,0.3,0,0.4c0,0.1-0.1,0.3-0.4,0.5s-0.5,0.3-0.8,0.3
		c-0.8,0-1.1-0.7-1.1-2.1c0-1.4,0.3-3.7,0.9-6.8c0.2-1.1,0.3-1.8,0.3-2c0-0.5,0.1-0.9,0.3-1.3s0.4-0.5,0.8-0.5
		c0.4,0,0.7,0.1,0.9,0.3s0.3,0.4,0.3,0.6s-0.1,0.5-0.2,0.9c-0.6,2.1-0.9,3.5-1.1,4.4S138.1,126.7,138.1,127.9z M139.6,114.8
		c-0.2,0-0.3-0.2-0.4-0.5c0-0.1-0.1-0.2-0.1-0.4c-0.2-0.5-0.3-0.9-0.3-1.3c0-0.3,0.2-0.6,0.6-1s0.8-0.5,1.2-0.5
		c0.2,0,0.5,0.1,0.8,0.3s0.4,0.3,0.4,0.5c0,0.3-0.1,0.7-0.3,1.3s-0.5,1-0.9,1.2S139.8,114.8,139.6,114.8z"/>
	<path class="st5" d="M150.7,121.5c-0.4,0-0.8,0.3-1.3,0.8s-1.2,1.7-2.2,3.6c-1.3,2.5-2.1,3.9-2.5,4.2s-0.7,0.5-0.9,0.5
		c-0.9,0-1.4-0.4-1.4-1.3c0-0.4,0.1-0.9,0.2-1.6c0.4-2.4,0.6-4.8,0.6-7.5c0-0.3,0.1-0.6,0.4-1s0.5-0.5,0.7-0.5
		c0.4,0,0.7,0.1,0.9,0.4s0.3,0.8,0.3,1.5c0,0.8-0.2,2.4-0.7,4.9c-0.2,0.8-0.2,1.3-0.2,1.5c0,0.1,0,0.2,0.1,0.2
		c0.1,0,0.7-0.9,1.6-2.8c1-1.9,1.8-3.2,2.6-4s1.5-1.2,2.4-1.2c0.7,0,1.3,0.3,1.7,1s0.8,1.8,1,3.5c0.2,1.9,0.4,3.1,0.6,3.6
		s0.5,0.7,0.8,0.7c0.2,0,0.5-0.1,0.9-0.3c0.1,0,0.1,0,0.1,0c0.3,0,0.5,0.2,0.5,0.6c0,0.3-0.2,0.7-0.7,1.1s-1,0.6-1.7,0.6
		c-0.7,0-1.2-0.3-1.5-0.8s-0.7-1.9-0.9-4.2C151.8,122.6,151.4,121.5,150.7,121.5z"/>
	<path class="st5" d="M168.6,126.5c0,0.8-0.7,1.8-2.1,2.9s-2.9,1.7-4.4,1.7c-1.3,0-2.2-0.4-2.9-1.1s-1-1.8-1-3.1
		c0-2.2,0.8-4.4,2.3-6.4s3.2-3,4.9-3c0.6,0,1.1,0.2,1.4,0.6s0.6,0.8,0.6,1.4c0,1.2-0.6,2.4-1.8,3.5s-2.8,2.2-4.7,3.2
		c-0.4,0.2-0.6,0.5-0.6,0.8c0,0.6,0.2,1.2,0.6,1.6s0.9,0.6,1.7,0.6c1.7,0,3.4-0.9,5.1-2.8c0.3-0.3,0.5-0.4,0.6-0.4
		C168.4,125.9,168.6,126.1,168.6,126.5z M160.4,124.7c3.3-2,5-3.6,5-4.7c0-0.5-0.2-0.7-0.6-0.7c-0.7,0-1.5,0.5-2.4,1.6
		S160.8,123.2,160.4,124.7z"/>
	<path class="st5" d="M173.3,125.8c0.1-0.1,0.2-0.3,0.3-0.6c0.5-1.2,1-2.2,1.5-2.9s0.9-1.4,1.5-2s1-1.1,1.5-1.4s0.8-0.6,1.2-0.7
		s0.7-0.2,1-0.2c0.7,0,1.2,0.2,1.7,0.6s0.6,0.9,0.6,1.4c0,0.2-0.1,0.5-0.2,0.7s-0.4,0.3-0.7,0.3c-0.3,0-0.6-0.1-0.9-0.4
		c-0.3-0.3-0.6-0.4-0.9-0.4c-0.8,0-1.9,1-3.4,3s-2.3,4.1-2.6,6.5c-0.1,0.6-0.2,1-0.4,1.2s-0.5,0.3-0.9,0.3c-0.4,0-0.7-0.3-0.8-0.9
		s-0.3-1.5-0.3-2.9c0-0.4,0-1.2,0.1-2.4c0-1.5,0.1-2.7,0.3-3.6c0-0.1,0.1-0.5,0.1-1c0.1-0.6,0.1-1,0.2-1.3s0.3-0.5,0.5-0.7
		s0.5-0.3,0.8-0.3c0.3,0,0.5,0.1,0.7,0.3s0.2,0.4,0.2,0.6c0,0.3-0.1,0.7-0.2,1.3c-0.2,0.6-0.3,1-0.3,1.3c0,0.3-0.1,0.5-0.1,0.8
		c-0.1,0.3-0.2,1.2-0.2,2.6l0,0.4V125.8z"/>
</g>
<polygon class="st10" points="570.5,301.8 517,338.8 517,406.5 624,406.5 624,338.8 "/>
<g>
	<path class="st5" d="M551.6,341.3c0.1,0.1,0.1,0.2,0.1,0.6c0,0.3,0,0.6-0.1,0.8l0.2,0.5c0.3,0.9,0.5,1.7,0.8,2.3
		c0.3,0.8,0.6,1.7,0.9,2.6c0.7,2.1,1.4,3.9,2.2,5.4s1.4,2.5,2.1,3.2c0.4,0.4,0.6,0.6,0.7,0.8s0.1,0.3,0.1,0.5c0,0.3-0.1,0.6-0.3,0.9
		s-0.5,0.4-0.8,0.4c-1,0-2.2-1.6-3.6-4.7c-0.6-1.2-0.9-1.9-1-1.9c-0.4,0-1.2,0.1-2.4,0.3s-2.4,0.5-3.4,0.8c-0.6,0.2-1,0.3-1.1,0.3
		c-0.2,0-0.4-0.1-0.6-0.3c0,0-0.1,0-0.1,0c-0.2,0-0.5,0.5-1.1,1.5c-0.9,1.7-1.5,2.7-1.8,3s-0.5,0.5-0.8,0.5c-0.2,0-0.5-0.1-0.8-0.4
		s-0.4-0.5-0.4-0.8c0-0.3,0.1-0.6,0.4-1s0.9-1.3,1.7-2.6c1.5-2.3,2.9-4.4,3.9-6.4c1.7-3.2,2.7-5.1,3.2-5.7s0.8-0.9,1-0.9
		C550.9,340.8,551.3,341,551.6,341.3z M552.3,350.6c-0.3-0.6-0.7-1.8-1.2-3.4c-0.6-1.8-0.9-2.9-1.1-3.2c-0.4,0.9-1.1,2.2-2,3.9
		l-2.1,4c0.2-0.1,0.6-0.2,1.3-0.3c0.5-0.1,1-0.1,1.4-0.2C550.7,350.8,551.9,350.6,552.3,350.6z"/>
	<path class="st5" d="M562.5,351.4c1-1.8,2.2-3.3,3.6-4.4s2.6-1.7,3.8-1.7c0.6,0,1.1,0.3,1.6,0.9s0.6,1.3,0.6,2.1
		c0,2.4-0.9,4.7-2.7,6.8s-3.8,3.2-5.8,3.2c-0.6,0-1.1-0.2-1.5-0.5s-0.7-0.7-0.8-1.1c0-0.4-0.1-0.6-0.3-0.8c-0.3-0.3-0.5-0.7-0.5-1.1
		c0-0.7,0.2-2.2,0.6-4.6l1.2-7c0.4-2.4,0.7-3.8,0.9-4.4s0.4-0.9,0.6-1.1s0.5-0.3,0.9-0.3c0.5,0,0.8,0.5,0.8,1.4
		c0,0.9-0.3,2.2-0.9,3.8C563.9,344.2,563.3,347.1,562.5,351.4z M562.2,355.3c0.4,0.8,0.9,1.1,1.5,1.1c0.9,0,1.8-0.4,2.8-1.1
		s1.8-1.8,2.6-3.1s1.1-2.5,1.1-3.4c0-0.4-0.1-0.8-0.2-1.1s-0.3-0.4-0.6-0.4c-1.1,0-2.4,0.9-4,2.7S562.8,353.5,562.2,355.3z"/>
	<path class="st5" d="M576.4,351.4c1-1.8,2.2-3.3,3.6-4.4s2.6-1.7,3.8-1.7c0.6,0,1.1,0.3,1.6,0.9s0.6,1.3,0.6,2.1
		c0,2.4-0.9,4.7-2.7,6.8s-3.8,3.2-5.8,3.2c-0.6,0-1.1-0.2-1.5-0.5s-0.7-0.7-0.8-1.1c0-0.4-0.1-0.6-0.3-0.8c-0.3-0.3-0.5-0.7-0.5-1.1
		c0-0.7,0.2-2.2,0.6-4.6l1.2-7c0.4-2.4,0.7-3.8,0.9-4.4s0.4-0.9,0.6-1.1s0.5-0.3,0.9-0.3c0.5,0,0.8,0.5,0.8,1.4
		c0,0.9-0.3,2.2-0.9,3.8C577.8,344.2,577.2,347.1,576.4,351.4z M576.1,355.3c0.4,0.8,0.9,1.1,1.5,1.1c0.9,0,1.8-0.4,2.8-1.1
		s1.8-1.8,2.6-3.1s1.1-2.5,1.1-3.4c0-0.4-0.1-0.8-0.2-1.1s-0.3-0.4-0.6-0.4c-1.1,0-2.4,0.9-4,2.7S576.7,353.5,576.1,355.3z"/>
	<path class="st5" d="M596.8,353.9c-1.4,1.3-2.7,2.2-3.8,2.7s-1.9,0.8-2.5,0.8c-0.8,0-1.4-0.3-1.8-1s-0.6-1.4-0.6-2.3
		c0-1.2,0.2-2.7,0.7-4.5s0.9-2.8,1.1-3.2s0.6-0.5,1.1-0.5c0.2,0,0.4,0.1,0.5,0.4s0.2,0.6,0.2,0.9c0,0.2-0.1,0.4-0.3,0.8
		c-0.4,0.7-0.6,1.1-0.7,1.2s-0.2,0.5-0.5,1.4s-0.4,1.7-0.4,2.4c0,0.3,0.1,0.7,0.2,1.2s0.4,0.8,0.8,0.8c0.4,0,1-0.1,1.6-0.4
		s1.3-0.7,2.1-1.3s1.3-1.1,1.6-1.4s0.5-0.8,0.6-1.3s0.2-1.5,0.2-3s0.4-2.3,1.1-2.3c0.4,0,0.7,0.1,0.8,0.3s0.2,0.6,0.2,1.3
		c0,0.5,0,1.2-0.1,1.9c-0.1,1-0.1,1.7-0.2,2.1c-0.1,2.1-0.4,4.3-0.8,6.5s-1.1,4-2,5.4s-2,2.2-3.6,2.2c-1.5,0-2.9-0.4-4.1-1.2
		s-1.8-1.5-1.8-2c0-0.3,0.1-0.5,0.2-0.8s0.3-0.4,0.5-0.4c0.1,0,0.2,0.1,0.3,0.2c1,1.6,2.6,2.4,4.8,2.4c1.1,0,2.1-1,2.9-3
		s1.2-3.9,1.3-5.6C596.7,354.6,596.8,354.2,596.8,353.9z"/>
	<path class="st5" d="M529.9,381.7c0-0.2,0.1-1.1,0.4-2.9s0.5-3.8,0.7-6.1s0.3-3.6,0.4-3.9s0.2-0.5,0.4-0.7s0.5-0.3,0.9-0.3
		c0.3,0,0.5,0.1,0.7,0.3s0.3,0.5,0.3,0.7c0,0.3-0.1,0.9-0.2,1.6c-0.2,1-0.5,3.1-0.9,6.3s-0.6,5-0.6,5.4c0,0.3,0,0.5,0.1,0.6
		s0.2,0.1,0.5,0.1c0.4,0,1.2-0.1,2.6-0.3c0.8-0.1,2.4-0.3,4.8-0.4c0.4,0,0.9-0.1,1.6-0.3c0.1,0,0.2,0,0.3,0c0.3,0,0.5,0.1,0.7,0.3
		s0.3,0.4,0.3,0.7c0,0.4-0.2,0.8-0.5,1.1s-0.7,0.4-1.1,0.4c-0.2,0-0.5,0-1-0.1c-0.5,0-0.9-0.1-1.1-0.1c-2.5,0-5,0.4-7.4,1.2
		c-0.4,0.1-0.8,0.2-1.1,0.2c-0.4,0-0.6-0.2-0.8-0.5s-0.3-0.6-0.3-0.9c0-0.2,0.1-0.5,0.2-1.1C529.8,382.6,529.9,382.1,529.9,381.7z"
		/>
	<path class="st5" d="M548.2,385.6c-1.1,0-2-0.4-2.6-1.2s-1-1.8-1-3c0-2,0.7-4,2-6s3-2.9,4.9-2.9c1.3,0,2.3,0.5,3,1.4
		s1.2,2.1,1.2,3.4c0,2-0.8,3.9-2.4,5.6S549.9,385.6,548.2,385.6z M546.6,381.1c0,0.8,0.2,1.4,0.5,1.9s0.8,0.8,1.3,0.8
		c1.2,0,2.3-0.6,3.5-1.9s1.8-2.7,1.8-4.3c0-1-0.2-1.7-0.7-2.3s-1.1-0.9-1.8-0.9c-1.3,0-2.3,0.8-3.2,2.3S546.6,379.7,546.6,381.1z"/>
	<path class="st5" d="M566.5,379.9c-1,1.7-2,3-3.1,3.9s-2,1.4-2.9,1.4c-0.5,0-1-0.3-1.6-0.9s-0.8-1.5-0.8-2.8c0-1,0.2-2.5,0.7-4.5
		c0.4-1.7,0.6-2.8,0.6-3.5c0.2-0.5,0.6-0.7,1.1-0.7c0.3,0,0.6,0.1,0.8,0.3s0.3,0.5,0.3,0.7c0,0.5-0.2,1.3-0.6,2.3
		c-0.7,2-1.1,3.6-1.1,5.1c0,1.3,0.3,1.9,0.9,1.9c0.8,0,1.7-0.6,2.9-1.9s2.2-3.1,3-5.4c0.3-0.9,0.6-1.5,0.8-1.8s0.5-0.4,0.8-0.4
		c0.5,0,0.8,0.4,0.8,1.1c0,0.1-0.1,0.4-0.2,0.9c-0.5,1.7-0.7,3.3-0.7,4.9c0,1.8,0.3,3,0.9,3.6c0.3,0.3,0.5,0.5,0.5,0.7
		c0,0.2-0.2,0.4-0.5,0.6s-0.6,0.3-0.9,0.3c-0.5,0-1-0.4-1.3-1.2s-0.5-2-0.5-3.6v-0.4C566.5,380.2,566.5,380.1,566.5,379.9z"/>
	<path class="st5" d="M580.8,376c-0.4,0-0.8,0.3-1.3,0.8s-1.2,1.7-2.2,3.6c-1.3,2.5-2.1,3.9-2.5,4.2s-0.7,0.5-0.9,0.5
		c-0.9,0-1.4-0.4-1.4-1.3c0-0.4,0.1-0.9,0.2-1.6c0.4-2.4,0.6-4.8,0.6-7.5c0-0.3,0.1-0.6,0.4-1s0.5-0.5,0.7-0.5
		c0.4,0,0.7,0.1,0.9,0.4s0.3,0.8,0.3,1.5c0,0.8-0.2,2.4-0.7,4.9c-0.2,0.8-0.2,1.3-0.2,1.5c0,0.1,0,0.2,0.1,0.2
		c0.1,0,0.7-0.9,1.6-2.8c1-1.9,1.8-3.2,2.6-4s1.5-1.2,2.4-1.2c0.7,0,1.3,0.3,1.7,1s0.8,1.8,1,3.5c0.2,1.9,0.4,3.1,0.6,3.6
		s0.5,0.7,0.8,0.7c0.2,0,0.5-0.1,0.9-0.3c0.1,0,0.1,0,0.1,0c0.3,0,0.5,0.2,0.5,0.6c0,0.3-0.2,0.7-0.7,1.1s-1,0.6-1.7,0.6
		c-0.7,0-1.2-0.3-1.5-0.8s-0.7-1.9-0.9-4.2C582,377.2,581.5,376,580.8,376z"/>
	<path class="st5" d="M597,380.8c-0.1-0.1-0.4,0.1-0.8,0.7c-0.7,0.8-1.6,1.6-2.7,2.2s-2.1,1-3.1,1c-0.7,0-1.3-0.2-1.7-0.7
		s-0.6-1.1-0.6-1.8c0-1.2,0.5-2.6,1.4-4s2.2-2.8,3.8-3.9s3.1-1.7,4.3-1.7c0.6,0,1.2,0.2,1.7,0.6c0.1,0.1,0.2,0.2,0.3,0.2
		c0.1,0.1,0.3,0.3,0.4,0.6s0.2,0.6,0.2,0.7c0,0.1,0,0.3-0.1,0.5c-0.5,1.3-0.8,2.4-1,3.2s-0.4,2.3-0.6,4.3c-0.2,1.8-0.4,3.2-0.6,4.2
		s-0.6,1.9-1.2,2.8s-1.3,1.6-2.1,2.1s-1.6,0.7-2.5,0.7c-1.5,0-2.9-0.5-4.3-1.5s-2.1-1.8-2.1-2.4c0-0.4,0.1-0.6,0.4-0.6
		c0.1,0,0.6,0.2,1.3,0.7c1.8,1.2,3.5,1.8,5,1.8c1.3,0,2.3-0.7,2.9-2.1s1.1-3.4,1.4-6.1C596.8,381.8,596.9,381.2,597,380.8z
		 M596.9,374.4c-0.7,0-1.5,0.3-2.5,1s-2,1.7-2.9,3s-1.4,2.4-1.4,3.3c0,0.3,0.1,0.5,0.3,0.7s0.4,0.3,0.6,0.3c0.7,0,1.6-0.4,2.7-1.1
		s2.1-1.7,2.9-3s1.2-2.3,1.2-3C597.9,374.8,597.6,374.4,596.9,374.4z"/>
	<path class="st5" d="M612.4,381.1c0,0.8-0.7,1.8-2.1,2.9s-2.9,1.7-4.4,1.7c-1.3,0-2.2-0.4-2.9-1.1s-1-1.8-1-3.1
		c0-2.2,0.8-4.4,2.3-6.4s3.2-3,4.9-3c0.6,0,1.1,0.2,1.4,0.6s0.6,0.8,0.6,1.4c0,1.2-0.6,2.4-1.8,3.5s-2.8,2.2-4.7,3.2
		c-0.4,0.2-0.6,0.5-0.6,0.8c0,0.6,0.2,1.2,0.6,1.6s0.9,0.6,1.7,0.6c1.7,0,3.4-0.9,5.1-2.8c0.3-0.3,0.5-0.4,0.6-0.4
		C612.3,380.5,612.4,380.7,612.4,381.1z M604.3,379.2c3.3-2,5-3.6,5-4.7c0-0.5-0.2-0.7-0.6-0.7c-0.7,0-1.5,0.5-2.4,1.6
		S604.6,377.7,604.3,379.2z"/>
</g>
<polygon class="st11" points="702.8,194.3 649.3,231.3 649.3,299 756.3,299 756.3,231.3 "/>
<g>
	<path class="st5" d="M669.9,249.1c0-0.2,0.1-1.1,0.4-2.9s0.5-3.8,0.7-6.1s0.3-3.6,0.4-3.9s0.2-0.5,0.4-0.7s0.5-0.3,0.9-0.3
		c0.3,0,0.5,0.1,0.7,0.3s0.3,0.5,0.3,0.7c0,0.3-0.1,0.9-0.2,1.6c-0.2,1-0.5,3.1-0.9,6.3s-0.6,5-0.6,5.4c0,0.3,0,0.5,0.1,0.6
		s0.2,0.1,0.5,0.1c0.4,0,1.2-0.1,2.6-0.3c0.8-0.1,2.4-0.3,4.8-0.4c0.4,0,0.9-0.1,1.6-0.3c0.1,0,0.2,0,0.3,0c0.3,0,0.5,0.1,0.7,0.3
		s0.3,0.4,0.3,0.7c0,0.4-0.2,0.8-0.5,1.1s-0.7,0.4-1.1,0.4c-0.2,0-0.5,0-1-0.1c-0.5,0-0.9-0.1-1.1-0.1c-2.5,0-5,0.4-7.4,1.2
		c-0.4,0.1-0.8,0.2-1.1,0.2c-0.4,0-0.6-0.2-0.8-0.5s-0.3-0.6-0.3-0.9c0-0.2,0.1-0.5,0.2-1.1C669.8,249.9,669.9,249.4,669.9,249.1z"
		/>
	<path class="st5" d="M692.8,247.3c-1,1.7-2,3-3.1,3.9s-2,1.4-2.9,1.4c-0.5,0-1-0.3-1.6-0.9s-0.8-1.5-0.8-2.8c0-1,0.2-2.5,0.7-4.5
		c0.4-1.7,0.6-2.8,0.6-3.5c0.2-0.5,0.6-0.7,1.1-0.7c0.3,0,0.6,0.1,0.8,0.3s0.3,0.5,0.3,0.7c0,0.5-0.2,1.3-0.6,2.3
		c-0.7,2-1.1,3.6-1.1,5.1c0,1.3,0.3,1.9,0.9,1.9c0.8,0,1.7-0.6,2.9-1.9s2.2-3.1,3-5.4c0.3-0.9,0.6-1.5,0.8-1.8s0.5-0.4,0.8-0.4
		c0.5,0,0.8,0.4,0.8,1.1c0,0.1-0.1,0.4-0.2,0.9c-0.5,1.7-0.7,3.3-0.7,4.9c0,1.8,0.3,3,0.9,3.6c0.3,0.3,0.5,0.5,0.5,0.7
		c0,0.2-0.2,0.4-0.5,0.6s-0.6,0.3-0.9,0.3c-0.5,0-1-0.4-1.3-1.2s-0.5-2-0.5-3.6v-0.4C692.8,247.6,692.8,247.5,692.8,247.3z"/>
	<path class="st5" d="M702.3,253.1c-1.2,0-2.1-0.3-2.7-1s-0.9-1.6-0.9-2.8c0-2,0.8-4.2,2.4-6.5s3.1-3.4,4.5-3.4c0.6,0,1.2,0.3,1.6,1
		s0.7,1.4,0.7,2.2c0,0.5-0.1,0.9-0.3,1.2s-0.4,0.5-0.6,0.5c-0.5,0-0.8-0.5-1-1.4c-0.2-1-0.5-1.5-0.9-1.5c-0.8,0-1.8,1-2.9,2.9
		s-1.7,3.6-1.7,4.9s0.8,2,2.3,2c1.1,0,2.5-0.5,4.1-1.6c0.5-0.4,0.9-0.6,1.2-0.6c0.3,0,0.4,0.2,0.4,0.5c0,0.6-0.7,1.3-2.1,2.2
		S703.7,253.1,702.3,253.1z"/>
	<path class="st5" d="M713.5,246.9c0.1-0.1,0.8-0.8,2.1-1.9c1.2-1.1,2.1-1.8,2.6-2.3c1.8-1.8,3.1-2.7,3.9-2.7c0.6,0,0.9,0.3,0.9,0.9
		c0,0.7-0.3,1.2-0.9,1.5c-0.8,0.4-1.8,1.1-3.1,2s-2,1.6-2,2c0,0.2,0.5,0.7,1.4,1.8s1.7,1.8,2.4,2.2s1.3,0.7,2,0.7l0.4,0
		c0.3,0,0.4,0.1,0.4,0.4c0,0.3-0.2,0.7-0.6,1s-1,0.5-1.7,0.5c-0.5,0-0.9-0.2-1.4-0.5s-1.3-1.2-2.5-2.6c-0.9-1.1-1.5-1.8-1.8-2.1
		s-0.4-0.3-0.6-0.3c-0.1,0-0.4,0.2-0.8,0.6s-0.7,0.7-0.8,0.9s-0.1,1-0.1,2.4v0.6c0,0.3-0.1,0.5-0.4,0.8s-0.6,0.3-0.9,0.3
		c-0.3,0-0.6-0.1-0.8-0.3s-0.3-0.4-0.3-0.6c0-0.3,0.1-0.9,0.3-2c0.3-1.5,0.6-3.5,0.8-6.1c0.6-6,1-9.4,1.3-10.1s0.8-1.2,1.3-1.2
		c0.2,0,0.4,0.1,0.5,0.3s0.2,0.5,0.2,0.8c0,0.6-0.3,2.3-0.8,5C714.1,241.7,713.7,244.4,713.5,246.9z"/>
	<path class="st5" d="M734,248.3c-1.4,1.3-2.7,2.2-3.8,2.7s-1.9,0.8-2.5,0.8c-0.8,0-1.4-0.3-1.8-1s-0.6-1.4-0.6-2.3
		c0-1.2,0.2-2.7,0.7-4.5s0.9-2.8,1.1-3.2s0.6-0.5,1.1-0.5c0.2,0,0.4,0.1,0.5,0.4s0.2,0.6,0.2,0.9c0,0.2-0.1,0.4-0.3,0.8
		c-0.4,0.7-0.6,1.1-0.7,1.2s-0.2,0.5-0.5,1.4s-0.4,1.7-0.4,2.4c0,0.3,0.1,0.7,0.2,1.2s0.4,0.8,0.8,0.8c0.4,0,1-0.1,1.6-0.4
		s1.3-0.7,2.1-1.3s1.3-1.1,1.6-1.4s0.5-0.8,0.6-1.3s0.2-1.5,0.2-3s0.4-2.3,1.1-2.3c0.4,0,0.7,0.1,0.8,0.3s0.2,0.6,0.2,1.3
		c0,0.5,0,1.2-0.1,1.9c-0.1,1-0.1,1.7-0.2,2.1c-0.1,2.1-0.4,4.3-0.8,6.5s-1.1,4-2,5.4s-2,2.2-3.6,2.2c-1.5,0-2.9-0.4-4.1-1.2
		s-1.8-1.5-1.8-2c0-0.3,0.1-0.5,0.2-0.8s0.3-0.4,0.5-0.4c0.1,0,0.2,0.1,0.3,0.2c1,1.6,2.6,2.4,4.8,2.4c1.1,0,2.1-1,2.9-3
		s1.2-3.9,1.3-5.6C733.9,249,733.9,248.6,734,248.3z"/>
	<path class="st5" d="M675.4,276.1c0-0.2,0.1-1.1,0.4-2.9s0.5-3.8,0.7-6.1s0.3-3.6,0.4-3.9s0.2-0.5,0.4-0.7s0.5-0.3,0.9-0.3
		c0.3,0,0.5,0.1,0.7,0.3s0.3,0.5,0.3,0.7c0,0.3-0.1,0.9-0.2,1.6c-0.2,1-0.5,3.1-0.9,6.3s-0.6,5-0.6,5.4c0,0.3,0,0.5,0.1,0.6
		s0.2,0.1,0.5,0.1c0.4,0,1.2-0.1,2.6-0.3c0.8-0.1,2.4-0.3,4.8-0.4c0.4,0,0.9-0.1,1.6-0.3c0.1,0,0.2,0,0.3,0c0.3,0,0.5,0.1,0.7,0.3
		s0.3,0.4,0.3,0.7c0,0.4-0.2,0.8-0.5,1.1s-0.7,0.4-1.1,0.4c-0.2,0-0.5,0-1-0.1c-0.5,0-0.9-0.1-1.1-0.1c-2.5,0-5,0.4-7.4,1.2
		c-0.4,0.1-0.8,0.2-1.1,0.2c-0.4,0-0.6-0.2-0.8-0.5s-0.3-0.6-0.3-0.9c0-0.2,0.1-0.5,0.2-1.1C675.2,276.9,675.3,276.4,675.4,276.1z"
		/>
	<path class="st5" d="M693.6,280c-1.1,0-2-0.4-2.6-1.2s-1-1.8-1-3c0-2,0.7-4,2-6s3-2.9,4.9-2.9c1.3,0,2.3,0.5,3,1.4s1.2,2.1,1.2,3.4
		c0,2-0.8,3.9-2.4,5.6S695.4,280,693.6,280z M692,275.5c0,0.8,0.2,1.4,0.5,1.9s0.8,0.8,1.3,0.8c1.2,0,2.3-0.6,3.5-1.9
		s1.8-2.7,1.8-4.3c0-1-0.2-1.7-0.7-2.3s-1.1-0.9-1.8-0.9c-1.3,0-2.3,0.8-3.2,2.3S692,274.1,692,275.5z"/>
	<path class="st5" d="M712,274.3c-1,1.7-2,3-3.1,3.9s-2,1.4-2.9,1.4c-0.5,0-1-0.3-1.6-0.9s-0.8-1.5-0.8-2.8c0-1,0.2-2.5,0.7-4.5
		c0.4-1.7,0.6-2.8,0.6-3.5c0.2-0.5,0.6-0.7,1.1-0.7c0.3,0,0.6,0.1,0.8,0.3s0.3,0.5,0.3,0.7c0,0.5-0.2,1.3-0.6,2.3
		c-0.7,2-1.1,3.6-1.1,5.1c0,1.3,0.3,1.9,0.9,1.9c0.8,0,1.7-0.6,2.9-1.9s2.2-3.1,3-5.4c0.3-0.9,0.6-1.5,0.8-1.8s0.5-0.4,0.8-0.4
		c0.5,0,0.8,0.4,0.8,1.1c0,0.1-0.1,0.4-0.2,0.9c-0.5,1.7-0.7,3.3-0.7,4.9c0,1.8,0.3,3,0.9,3.6c0.3,0.3,0.5,0.5,0.5,0.7
		c0,0.2-0.2,0.4-0.5,0.6s-0.6,0.3-0.9,0.3c-0.5,0-1-0.4-1.3-1.2s-0.5-2-0.5-3.6v-0.4C712,274.6,712,274.5,712,274.3z"/>
	<path class="st5" d="M718.5,260.9c0-0.1,0.2-0.2,0.5-0.3s0.5-0.2,0.6-0.2s0.4,0.2,0.7,0.6l0.3,0.3c0.4,0.4,0.6,0.8,0.8,1.2
		c0.1,0.2,0.1,0.4,0.1,0.8c0,0.7-0.2,1.7-0.7,3s-1,2-1.7,2c-0.2,0-0.4-0.1-0.6-0.2s-0.3-0.3-0.3-0.5c0-0.4,0.2-0.7,0.5-1
		c0.7-0.7,1.1-1.5,1.1-2.5c0-0.4-0.3-0.9-1-1.5c-0.2-0.2-0.3-0.3-0.4-0.4s-0.1-0.3-0.1-0.7S718.5,260.9,718.5,260.9z"/>
	<path class="st5" d="M729.8,276.7c0-0.5-0.6-1.1-1.9-1.7c-1.6-0.8-2.7-1.5-3.2-2s-0.8-1-0.8-1.6c0-1.6,0.8-2.8,2.3-3.9
		s2.8-1.5,3.8-1.5c0.6,0,1.1,0.1,1.4,0.3s0.4,0.6,0.4,1.1c0,0.2-0.1,0.4-0.3,0.6s-0.4,0.3-0.5,0.3c-0.1,0-0.3-0.1-0.5-0.2
		c-0.3-0.1-0.4-0.2-0.5-0.2c-0.4,0-1.2,0.3-2.4,0.9s-1.8,1.2-1.8,1.9c0,0.4,0.2,0.8,0.6,1.2s1.2,0.8,2.3,1.3
		c0.9,0.4,1.6,0.9,2.1,1.4s0.8,1,0.8,1.7c0,1.2-0.8,2.1-2.5,2.8s-3.2,1-4.7,1c-1.3,0-1.9-0.4-1.9-1.3c0-0.3,0.1-0.5,0.4-0.7
		s0.6-0.2,0.9-0.2c0.1,0,0.3,0,0.7,0.1c0.3,0.1,0.5,0.1,0.6,0.1c0.9,0,1.8-0.1,2.8-0.4S729.5,277.2,729.8,276.7z"/>
</g>
<polygon class="st12" points="400,271 346.5,308 346.5,375.7 453.5,375.7 453.5,308 "/>
<g>
	<path class="st5" d="M362.8,324.7c-2.1,2.3-4.1,3.4-5.8,3.4c-1,0-1.7-0.4-2.3-1.2s-0.9-1.9-0.9-3.2c0-3.3,1-6.4,3.1-9.3
		c2.1-2.9,4.3-4.3,6.5-4.3c0.7,0,1.2,0.2,1.6,0.5s0.6,0.7,0.6,1.2c0,0.4-0.1,0.9-0.4,1.4c-0.2,0.5-0.5,0.8-0.7,0.8
		c-0.2,0-0.3-0.2-0.4-0.5c-0.2-0.5-0.3-0.9-0.5-1.1s-0.5-0.3-0.9-0.3c-1,0-2.1,0.6-3.4,1.9s-2.3,2.8-3,4.5s-1.1,3.3-1.1,4.9
		c0,1.8,0.6,2.7,1.9,2.7c0.6,0,1.2-0.2,2-0.6c0.8-0.4,1.6-1,2.4-1.8s1.4-1.5,1.6-2.1s0.3-1.4,0.4-2.4c0.1-0.6,0.4-0.8,0.9-0.8
		c0.6,0,0.9,0.2,0.9,0.7c0,0.2-0.1,0.6-0.3,1.2c-0.3,0.9-0.5,1.7-0.6,2.5s-0.3,1.6-0.4,2.6c-0.1,1-0.2,1.7-0.2,2.1
		c0,0.4,0.1,0.9,0.2,1.6c0,0.1,0,0.3,0,0.4c0,0.3-0.1,0.5-0.2,0.8c-0.2,0.3-0.3,0.4-0.6,0.4c-0.2,0-0.5-0.1-0.7-0.4
		c-0.2-0.3-0.4-0.6-0.4-0.9c0-0.3,0.1-1.4,0.4-3.4C362.7,325.6,362.7,325.1,362.8,324.7z"/>
	<path class="st5" d="M373.5,323.9c-0.8,1.5-1.6,2.6-2.4,3.3c-0.8,0.7-1.5,1.1-2.2,1.1c-0.4,0-0.8-0.3-1.2-0.8s-0.5-1.2-0.5-2
		c0-2.1,0.7-4.3,2-6.6s2.7-3.6,4.1-3.6c0.5,0,0.8,0.4,1.1,1.1c0.1,0.3,0.2,0.4,0.4,0.4c0.5,0,0.7,0.2,0.7,0.7c0,0.2,0,0.6-0.1,1
		c-0.3,2.3-0.5,3.9-0.5,4.9c0,1.9,0.3,3,0.8,3.4c0.3,0.2,0.4,0.4,0.4,0.7c0,0.2-0.1,0.5-0.4,0.7s-0.5,0.4-0.7,0.4
		c-0.4,0-0.8-0.4-1.1-1.2C373.7,326.6,373.5,325.4,373.5,323.9z M373,317.3c-0.8,0-1.7,1-2.7,2.9c-1,1.9-1.5,3.5-1.5,4.8
		c0,0.9,0.2,1.3,0.7,1.3c0.6,0,1.5-0.9,2.7-2.6c1.1-1.7,1.7-3.3,1.7-4.8C373.8,317.9,373.6,317.3,373,317.3z"/>
	<path class="st5" d="M381.1,308.3c0.4,0,0.6,0.4,0.6,1.1c0,0.6-0.3,2.2-0.8,4.6c-0.3,1.5-0.6,3.2-0.7,5s-0.3,3.3-0.3,4.3
		c0,1.3,0.1,2.6,0.2,3.8c0,0.2,0,0.4,0,0.5c0,0.4-0.1,0.7-0.3,1c-0.2,0.3-0.4,0.4-0.6,0.4c-0.3,0-0.5-0.3-0.6-0.8
		c-0.1-0.5-0.2-1.3-0.2-2.5c0-2.6,0.2-5.9,0.7-9.7s0.8-6.1,1.1-6.8S380.8,308.3,381.1,308.3z"/>
	<path class="st5" d="M386.2,308.3c0.4,0,0.6,0.4,0.6,1.1c0,0.6-0.3,2.2-0.8,4.6c-0.3,1.5-0.6,3.2-0.7,5s-0.3,3.3-0.3,4.3
		c0,1.3,0.1,2.6,0.2,3.8c0,0.2,0,0.4,0,0.5c0,0.4-0.1,0.7-0.3,1c-0.2,0.3-0.4,0.4-0.6,0.4c-0.3,0-0.5-0.3-0.6-0.8
		c-0.1-0.5-0.2-1.3-0.2-2.5c0-2.6,0.2-5.9,0.7-9.7s0.8-6.1,1.1-6.8S385.9,308.3,386.2,308.3z"/>
	<path class="st5" d="M394,323.9c-0.8,1.5-1.6,2.6-2.4,3.3c-0.8,0.7-1.5,1.1-2.2,1.1c-0.4,0-0.8-0.3-1.2-0.8s-0.5-1.2-0.5-2
		c0-2.1,0.7-4.3,2-6.6s2.7-3.6,4.1-3.6c0.5,0,0.8,0.4,1.1,1.1c0.1,0.3,0.2,0.4,0.4,0.4c0.5,0,0.7,0.2,0.7,0.7c0,0.2,0,0.6-0.1,1
		c-0.3,2.3-0.5,3.9-0.5,4.9c0,1.9,0.3,3,0.8,3.4c0.3,0.2,0.4,0.4,0.4,0.7c0,0.2-0.1,0.5-0.4,0.7s-0.5,0.4-0.7,0.4
		c-0.4,0-0.8-0.4-1.1-1.2C394.2,326.6,394,325.4,394,323.9z M393.5,317.3c-0.8,0-1.7,1-2.7,2.9c-1,1.9-1.5,3.5-1.5,4.8
		c0,0.9,0.2,1.3,0.7,1.3c0.6,0,1.5-0.9,2.7-2.6c1.1-1.7,1.7-3.3,1.7-4.8C394.3,317.9,394,317.3,393.5,317.3z"/>
	<path class="st5" d="M404.7,323.9c-0.1-0.1-0.3,0.1-0.6,0.7c-0.5,0.8-1.2,1.6-2,2.2s-1.6,1-2.3,1c-0.5,0-0.9-0.2-1.2-0.7
		c-0.3-0.4-0.4-1.1-0.4-1.8c0-1.2,0.3-2.6,1-4s1.6-2.8,2.8-3.9c1.2-1.1,2.3-1.7,3.2-1.7c0.5,0,0.9,0.2,1.3,0.6
		c0.1,0.1,0.2,0.2,0.2,0.2c0.1,0.1,0.2,0.3,0.3,0.6c0.1,0.3,0.1,0.6,0.1,0.7c0,0.1,0,0.3-0.1,0.5c-0.4,1.3-0.6,2.4-0.7,3.2
		c-0.1,0.9-0.3,2.3-0.4,4.3c-0.1,1.8-0.3,3.2-0.5,4.2c-0.2,1-0.5,1.9-0.9,2.8s-0.9,1.6-1.5,2.1s-1.2,0.7-1.8,0.7
		c-1.1,0-2.2-0.5-3.2-1.5c-1.1-1-1.6-1.8-1.6-2.4c0-0.4,0.1-0.6,0.3-0.6c0.1,0,0.4,0.2,0.9,0.7c1.4,1.2,2.6,1.8,3.7,1.8
		c1,0,1.7-0.7,2.2-2.1s0.8-3.4,1-6.1C404.6,324.9,404.7,324.4,404.7,323.9z M404.7,317.5c-0.5,0-1.1,0.3-1.8,1
		c-0.7,0.7-1.5,1.7-2.2,3c-0.7,1.3-1,2.4-1,3.3c0,0.3,0.1,0.5,0.2,0.7s0.3,0.3,0.5,0.3c0.5,0,1.2-0.4,2-1.1s1.5-1.7,2.1-3
		c0.6-1.3,0.9-2.3,0.9-3C405.4,317.9,405.2,317.5,404.7,317.5z"/>
	<path class="st5" d="M410.2,324.7c2.2-5.4,3.9-8.1,5.3-8.1c0.4,0,0.7,0.3,0.9,0.9c0.2,0.6,0.4,1.8,0.6,3.8c0.1,2.1,0.5,3.6,1,4.5
		c0.3,0.5,0.4,0.8,0.4,1.1c0,0.2-0.1,0.4-0.3,0.6c-0.2,0.2-0.4,0.3-0.6,0.3c-0.5,0-0.9-0.3-1.2-1s-0.6-1.9-0.7-3.6
		c-0.1-1.6-0.2-2.7-0.3-3.2s-0.3-0.8-0.5-0.8c-0.6,0-1.8,2.1-3.7,6.4c-0.6,1.3-1,2.1-1.2,2.5s-0.5,0.6-0.7,0.6
		c-0.3,0-0.5-0.1-0.6-0.3s-0.3-0.5-0.3-0.8c0-0.2,0-0.6,0.1-1.3c0.7-5,1.3-9.9,1.7-14.7c0.1-1.1,0.2-1.9,0.4-2.3
		c0.2-0.4,0.4-0.6,0.5-0.6c0.2,0,0.5,0.1,0.7,0.4c0.2,0.3,0.3,0.7,0.3,1.1c0,1.4-0.3,3.4-0.8,5.9c-0.3,1.2-0.5,2.8-0.8,4.7
		s-0.4,3.1-0.4,3.6C410,324.6,410.1,324.7,410.2,324.7L410.2,324.7z"/>
	<path class="st5" d="M427.3,324.2c0,0.8-0.5,1.8-1.6,2.9c-1,1.1-2.1,1.7-3.2,1.7c-0.9,0-1.7-0.4-2.2-1.1c-0.5-0.7-0.8-1.8-0.8-3.1
		c0-2.2,0.6-4.4,1.7-6.4c1.1-2,2.3-3,3.7-3c0.4,0,0.8,0.2,1.1,0.6s0.4,0.8,0.4,1.4c0,1.2-0.4,2.4-1.3,3.5s-2,2.2-3.5,3.2
		c-0.3,0.2-0.5,0.5-0.5,0.8c0,0.6,0.1,1.2,0.4,1.6c0.3,0.4,0.7,0.6,1.2,0.6c1.2,0,2.5-0.9,3.8-2.8c0.2-0.3,0.3-0.4,0.4-0.4
		C427.2,323.6,427.3,323.8,427.3,324.2z M421.2,322.4c2.5-2,3.7-3.6,3.7-4.7c0-0.5-0.2-0.7-0.5-0.7c-0.5,0-1.1,0.5-1.8,1.6
		C422,319.6,421.5,320.8,421.2,322.4z"/>
	<path class="st5" d="M430.8,323.5c0.1-0.1,0.1-0.3,0.2-0.6c0.4-1.2,0.8-2.2,1.1-2.9c0.3-0.7,0.7-1.4,1.1-2c0.4-0.6,0.8-1.1,1.1-1.4
		c0.3-0.3,0.6-0.6,0.9-0.7s0.5-0.2,0.8-0.2c0.5,0,0.9,0.2,1.2,0.6c0.3,0.4,0.5,0.9,0.5,1.4c0,0.2-0.1,0.5-0.2,0.7s-0.3,0.3-0.5,0.3
		c-0.2,0-0.5-0.1-0.7-0.4c-0.2-0.3-0.4-0.4-0.7-0.4c-0.6,0-1.4,1-2.5,3s-1.7,4.1-1.9,6.5c-0.1,0.6-0.2,1-0.3,1.2s-0.4,0.3-0.7,0.3
		c-0.3,0-0.5-0.3-0.6-0.9c-0.1-0.6-0.2-1.5-0.2-2.9c0-0.4,0-1.2,0-2.4c0-1.5,0.1-2.7,0.2-3.6c0-0.1,0-0.5,0.1-1c0-0.6,0.1-1,0.2-1.3
		c0.1-0.2,0.2-0.5,0.4-0.7c0.2-0.2,0.4-0.3,0.6-0.3c0.2,0,0.4,0.1,0.5,0.3s0.2,0.4,0.2,0.6c0,0.3-0.1,0.7-0.2,1.3
		c-0.1,0.6-0.2,1-0.2,1.3c0,0.3,0,0.5-0.1,0.8c-0.1,0.3-0.1,1.2-0.2,2.6l0,0.4V323.5z"/>
	<path class="st5" d="M438.3,309.6c0-0.1,0.1-0.2,0.4-0.3c0.2-0.1,0.4-0.2,0.5-0.2s0.3,0.2,0.5,0.6l0.2,0.3c0.3,0.4,0.5,0.8,0.6,1.2
		c0.1,0.2,0.1,0.4,0.1,0.8c0,0.7-0.2,1.7-0.5,3s-0.8,2-1.2,2c-0.2,0-0.3-0.1-0.5-0.2s-0.2-0.3-0.2-0.5c0-0.4,0.1-0.7,0.4-1
		c0.6-0.7,0.8-1.5,0.8-2.5c0-0.4-0.2-0.9-0.7-1.5c-0.2-0.2-0.2-0.3-0.3-0.4c0-0.1,0-0.3-0.1-0.7S438.2,309.7,438.3,309.6z"/>
	<path class="st5" d="M446.6,325.5c0-0.5-0.5-1.1-1.4-1.7c-1.2-0.8-2-1.5-2.4-2s-0.6-1-0.6-1.6c0-1.6,0.6-2.8,1.7-3.9
		s2.1-1.5,2.8-1.5c0.5,0,0.8,0.1,1,0.3s0.3,0.6,0.3,1.1c0,0.2-0.1,0.4-0.2,0.6s-0.3,0.3-0.4,0.3c-0.1,0-0.2-0.1-0.4-0.2
		c-0.2-0.1-0.3-0.2-0.4-0.2c-0.3,0-0.9,0.3-1.8,0.9s-1.3,1.2-1.3,1.9c0,0.4,0.2,0.8,0.5,1.2c0.3,0.4,0.9,0.8,1.7,1.3
		c0.7,0.4,1.2,0.9,1.6,1.4c0.4,0.5,0.6,1,0.6,1.7c0,1.2-0.6,2.1-1.8,2.8c-1.2,0.7-2.4,1-3.5,1c-0.9,0-1.4-0.4-1.4-1.3
		c0-0.3,0.1-0.5,0.3-0.7s0.4-0.2,0.6-0.2c0.1,0,0.3,0,0.5,0.1c0.2,0.1,0.4,0.1,0.5,0.1c0.6,0,1.3-0.1,2.1-0.4
		S446.4,325.9,446.6,325.5z"/>
	<path class="st5" d="M361.1,342.1c0-1-0.2-1.7-0.6-1.9c-0.4-0.2-0.9-0.3-1.5-0.3c-1.2,0-2.3,0.3-3.3,1s-1.5,1.4-1.5,2.3
		c0,0.7,0.2,1.2,0.7,1.7c0.4,0.5,1.4,1,2.9,1.6c1.4,0.6,2.5,1.1,3.1,1.7c0.6,0.6,0.9,1.3,0.9,2.2c0,0.9-0.4,1.8-1.3,2.8
		s-1.9,1.7-3.1,2.3s-2.2,0.8-3.1,0.8c-0.7,0-1.2-0.1-1.6-0.3c-0.4-0.2-0.5-0.5-0.5-0.8c0-0.2,0.1-0.5,0.2-0.9s0.2-0.5,0.3-0.5
		c0.1,0,0.2,0,0.4,0.1c0.6,0.3,1.2,0.5,1.8,0.5c1.1,0,2.3-0.4,3.5-1.3c1.2-0.9,1.8-1.7,1.8-2.4c0-0.3-0.2-0.6-0.6-0.9
		s-1.3-0.8-2.8-1.4c-1.9-0.8-3-1.6-3.5-2.3s-0.6-1.6-0.6-2.4c0-1.6,0.7-2.9,2.1-3.9c1.4-1,2.8-1.5,4.3-1.5c1,0,1.8,0.2,2.3,0.7
		s0.8,1,0.8,1.5c0,0.3-0.1,0.7-0.2,1.2S361.5,342.1,361.1,342.1z"/>
	<path class="st5" d="M367.7,343.3c0.6-0.1,1.2-0.1,1.7-0.2c0.5-0.1,1-0.1,1.3-0.1c0.4,0,0.7,0.1,0.8,0.2c0.1,0.1,0.2,0.3,0.2,0.6
		c0,0.6-0.3,1-1,1c-0.8,0.1-1.6,0.2-2.3,0.3c-0.7,0.1-1.1,0.2-1.1,0.3c-0.1,0.1-0.2,1-0.5,2.8c-0.3,1.8-0.4,2.9-0.4,3.5
		c0,0.9,0.1,1.4,0.3,1.7c0.2,0.3,0.4,0.4,0.8,0.4c0.5,0,1.2-0.5,2.1-1.5c0.3-0.4,0.6-0.6,0.8-0.6c0.2,0,0.4,0.2,0.4,0.5
		c0,0.6-0.4,1.3-1.2,2.2c-0.8,0.9-1.6,1.3-2.5,1.3c-1.4,0-2.1-1.1-2.1-3.3c0-0.8,0.1-2.1,0.4-3.7c0.3-1.7,0.4-2.7,0.4-3
		c0-0.1-0.1-0.2-0.2-0.2l-0.9,0.1c-0.7,0-1.1-0.4-1.1-1.2c0-0.5,0.2-0.7,0.5-0.7h1.8c0.1,0,0.2-0.1,0.3-0.2s0.2-0.6,0.4-1.5
		s0.3-1.7,0.5-2.5c0.1-0.8,0.4-1.2,0.8-1.2c0.2,0,0.4,0.1,0.6,0.4s0.2,0.5,0.2,0.7c0,0.1-0.1,0.7-0.3,1.7L367.7,343.3z"/>
	<path class="st5" d="M379.9,351.2c0,0.8-0.5,1.8-1.6,2.9s-2.1,1.7-3.2,1.7c-0.9,0-1.7-0.4-2.2-1.1c-0.5-0.7-0.8-1.8-0.8-3.1
		c0-2.2,0.6-4.4,1.7-6.4s2.3-3,3.7-3c0.4,0,0.8,0.2,1.1,0.6s0.4,0.8,0.4,1.4c0,1.2-0.4,2.4-1.3,3.5c-0.9,1.1-2,2.2-3.5,3.2
		c-0.3,0.2-0.5,0.5-0.5,0.8c0,0.6,0.1,1.2,0.4,1.6s0.7,0.6,1.2,0.6c1.2,0,2.5-0.9,3.8-2.8c0.2-0.3,0.3-0.4,0.4-0.4
		C379.8,350.6,379.9,350.8,379.9,351.2z M373.9,349.4c2.5-2,3.7-3.6,3.7-4.7c0-0.5-0.2-0.7-0.5-0.7c-0.5,0-1.1,0.5-1.8,1.6
		S374.1,347.8,373.9,349.4z"/>
	<path class="st5" d="M387.5,350.9c-0.8,1.5-1.6,2.6-2.4,3.3c-0.8,0.7-1.5,1.1-2.2,1.1c-0.4,0-0.8-0.3-1.2-0.8s-0.5-1.2-0.5-2
		c0-2.1,0.7-4.3,2-6.6s2.7-3.6,4.1-3.6c0.5,0,0.8,0.4,1.1,1.1c0.1,0.3,0.2,0.4,0.4,0.4c0.5,0,0.7,0.2,0.7,0.7c0,0.2,0,0.6-0.1,1
		c-0.3,2.3-0.5,3.9-0.5,4.9c0,1.9,0.3,3,0.8,3.4c0.3,0.2,0.4,0.4,0.4,0.7c0,0.2-0.1,0.5-0.4,0.7s-0.5,0.4-0.7,0.4
		c-0.4,0-0.8-0.4-1.1-1.2C387.7,353.6,387.5,352.4,387.5,350.9z M387,344.3c-0.8,0-1.7,1-2.7,2.9c-1,1.9-1.5,3.5-1.5,4.8
		c0,0.9,0.2,1.3,0.7,1.3c0.6,0,1.5-0.9,2.7-2.6c1.1-1.7,1.7-3.3,1.7-4.8C387.8,344.9,387.5,344.3,387,344.3z"/>
	<path class="st5" d="M393.7,349.7c0.1-0.1,0.6-0.8,1.6-1.9c0.9-1.1,1.5-1.8,1.9-2.3c1.3-1.8,2.3-2.7,2.9-2.7c0.5,0,0.7,0.3,0.7,0.9
		c0,0.7-0.2,1.2-0.7,1.5c-0.6,0.4-1.4,1.1-2.3,2c-1,0.9-1.5,1.6-1.5,2c0,0.2,0.3,0.7,1,1.8c0.7,1,1.3,1.8,1.8,2.2s1,0.7,1.5,0.7
		l0.3,0c0.2,0,0.3,0.1,0.3,0.4c0,0.3-0.2,0.7-0.5,1c-0.3,0.4-0.7,0.5-1.3,0.5c-0.3,0-0.7-0.2-1-0.5c-0.3-0.3-1-1.2-1.8-2.6
		c-0.7-1.1-1.1-1.8-1.3-2.1s-0.3-0.3-0.4-0.3c-0.1,0-0.3,0.2-0.6,0.6c-0.3,0.4-0.5,0.7-0.6,0.9s0,1,0,2.4v0.6c0,0.3-0.1,0.5-0.3,0.8
		c-0.2,0.2-0.4,0.3-0.7,0.3c-0.2,0-0.4-0.1-0.6-0.3s-0.2-0.4-0.2-0.6c0-0.3,0.1-0.9,0.2-2c0.2-1.5,0.4-3.5,0.6-6.1
		c0.4-6,0.8-9.4,1-10.1s0.6-1.2,1-1.2c0.2,0,0.3,0.1,0.4,0.3c0.1,0.2,0.2,0.5,0.2,0.8c0,0.6-0.2,2.3-0.6,5
		C394.2,344.5,393.9,347.1,393.7,349.7z"/>
	<path class="st5" d="M404,351.7c2.2-5.4,3.9-8.1,5.3-8.1c0.4,0,0.7,0.3,0.9,0.9c0.2,0.6,0.4,1.8,0.6,3.8c0.1,2.1,0.5,3.6,1,4.5
		c0.3,0.5,0.4,0.8,0.4,1.1c0,0.2-0.1,0.4-0.3,0.6c-0.2,0.2-0.4,0.3-0.6,0.3c-0.5,0-0.9-0.3-1.2-1s-0.6-1.9-0.7-3.6
		c-0.1-1.6-0.2-2.7-0.3-3.2s-0.3-0.8-0.5-0.8c-0.6,0-1.8,2.1-3.7,6.4c-0.6,1.3-1,2.1-1.2,2.5s-0.5,0.6-0.7,0.6
		c-0.3,0-0.5-0.1-0.6-0.3s-0.3-0.5-0.3-0.8c0-0.2,0-0.6,0.1-1.3c0.7-5,1.3-9.9,1.7-14.7c0.1-1.1,0.2-1.9,0.4-2.3
		c0.2-0.4,0.4-0.6,0.5-0.6c0.2,0,0.5,0.1,0.7,0.4c0.2,0.3,0.3,0.7,0.3,1.1c0,1.4-0.3,3.4-0.8,5.9c-0.3,1.2-0.5,2.8-0.8,4.7
		s-0.4,3.1-0.4,3.6C403.8,351.6,403.9,351.7,404,351.7L404,351.7z"/>
	<path class="st5" d="M416.2,355.8c-0.8,0-1.4-0.4-2-1.2c-0.5-0.8-0.8-1.8-0.8-3c0-2,0.5-4,1.5-6s2.2-2.9,3.6-2.9
		c0.9,0,1.7,0.5,2.3,1.4s0.9,2.1,0.9,3.4c0,2-0.6,3.9-1.8,5.6S417.5,355.8,416.2,355.8z M415,351.2c0,0.8,0.1,1.4,0.4,1.9
		c0.2,0.5,0.6,0.8,1,0.8c0.9,0,1.7-0.6,2.6-1.9c0.9-1.3,1.3-2.7,1.3-4.3c0-1-0.2-1.7-0.5-2.3s-0.8-0.9-1.3-0.9
		c-0.9,0-1.7,0.8-2.4,2.3C415.3,348.3,415,349.8,415,351.2z"/>
	<path class="st5" d="M429.8,350.1c-0.7,1.7-1.5,3-2.3,3.9c-0.8,0.9-1.5,1.4-2.2,1.4c-0.4,0-0.8-0.3-1.2-0.9
		c-0.4-0.6-0.6-1.5-0.6-2.8c0-1,0.2-2.5,0.5-4.5c0.3-1.7,0.5-2.8,0.5-3.5c0.2-0.5,0.4-0.7,0.8-0.7c0.2,0,0.4,0.1,0.6,0.3
		c0.1,0.2,0.2,0.5,0.2,0.7c0,0.5-0.1,1.3-0.4,2.3c-0.5,2-0.8,3.6-0.8,5.1c0,1.3,0.2,1.9,0.7,1.9c0.6,0,1.3-0.6,2.1-1.9
		c0.9-1.3,1.6-3.1,2.2-5.4c0.2-0.9,0.4-1.5,0.6-1.8c0.2-0.3,0.4-0.4,0.6-0.4c0.4,0,0.6,0.4,0.6,1.1c0,0.1-0.1,0.4-0.2,0.9
		c-0.3,1.7-0.5,3.3-0.5,4.9c0,1.8,0.2,3,0.7,3.6c0.2,0.3,0.3,0.5,0.3,0.7c0,0.2-0.1,0.4-0.4,0.6c-0.2,0.2-0.4,0.3-0.6,0.3
		c-0.4,0-0.7-0.4-1-1.2s-0.4-2-0.4-3.6v-0.4C429.8,350.3,429.8,350.2,429.8,350.1z"/>
	<path class="st5" d="M438.8,352.5c0-0.5-0.5-1.1-1.4-1.7c-1.2-0.8-2-1.5-2.4-2s-0.6-1-0.6-1.6c0-1.6,0.6-2.8,1.7-3.9
		s2.1-1.5,2.8-1.5c0.5,0,0.8,0.1,1,0.3s0.3,0.6,0.3,1.1c0,0.2-0.1,0.4-0.2,0.6s-0.3,0.3-0.4,0.3c-0.1,0-0.2-0.1-0.4-0.2
		c-0.2-0.1-0.3-0.2-0.4-0.2c-0.3,0-0.9,0.3-1.8,0.9s-1.3,1.2-1.3,1.9c0,0.4,0.2,0.8,0.5,1.2c0.3,0.4,0.9,0.8,1.7,1.3
		c0.7,0.4,1.2,0.9,1.6,1.4c0.4,0.5,0.6,1,0.6,1.7c0,1.2-0.6,2.1-1.8,2.8c-1.2,0.7-2.4,1-3.5,1c-0.9,0-1.4-0.4-1.4-1.3
		c0-0.3,0.1-0.5,0.3-0.7s0.4-0.2,0.6-0.2c0.1,0,0.3,0,0.5,0.1c0.2,0.1,0.4,0.1,0.5,0.1c0.6,0,1.3-0.1,2.1-0.4
		S438.6,352.9,438.8,352.5z"/>
	<path class="st5" d="M449.4,351.2c0,0.8-0.5,1.8-1.6,2.9c-1,1.1-2.1,1.7-3.2,1.7c-0.9,0-1.7-0.4-2.2-1.1c-0.5-0.7-0.8-1.8-0.8-3.1
		c0-2.2,0.6-4.4,1.7-6.4c1.1-2,2.3-3,3.7-3c0.4,0,0.8,0.2,1.1,0.6s0.4,0.8,0.4,1.4c0,1.2-0.4,2.4-1.3,3.5s-2,2.2-3.5,3.2
		c-0.3,0.2-0.5,0.5-0.5,0.8c0,0.6,0.1,1.2,0.4,1.6c0.3,0.4,0.7,0.6,1.2,0.6c1.2,0,2.5-0.9,3.8-2.8c0.2-0.3,0.3-0.4,0.4-0.4
		C449.3,350.6,449.4,350.8,449.4,351.2z M443.3,349.4c2.5-2,3.7-3.6,3.7-4.7c0-0.5-0.2-0.7-0.5-0.7c-0.5,0-1.1,0.5-1.8,1.6
		C444.1,346.6,443.6,347.8,443.3,349.4z"/>
</g>
<polygon class="st13" points="140.2,293.2 86.7,330.2 86.7,397.8 193.7,397.8 193.7,330.2 "/>
<g>
	<path class="st5" d="M132,344.6c0.4,0,1,0,1.9,0c1,0,2.7,0.1,5.1,0.2c0.6,0,1.1,0,1.2,0s0.4-0.1,0.7-0.2c0.3-0.1,0.6-0.2,0.7-0.2
		c0.1,0,0.3,0.1,0.5,0.3s0.3,0.4,0.3,0.5c0,0.5-0.3,0.9-0.8,1.2s-1,0.4-1.4,0.4h-0.4c-0.8,0-1.3-0.1-1.7-0.2
		c-1.1-0.3-2.4-0.4-4.1-0.4c-1.4,0-2.6,0.2-3.6,0.5s-1.7,0.7-2,1.1c-0.4,0.4-0.6,0.7-0.8,0.8s-0.4,0.2-0.7,0.2
		c-0.6,0-0.9-0.3-0.9-0.8c0-0.8,0.3-1.5,1-2.2s1.8-1.3,3.4-2.2c0.9-0.5,1.5-0.8,1.7-0.9s0.8-0.7,1.7-1.5s1.6-1.6,2.1-2.2
		s0.8-1.1,1-1.6s0.3-0.9,0.3-1.3c0-0.5-0.3-1.1-1-1.7s-1.3-0.8-1.8-0.8c-0.5,0-1.2,0.3-2.2,0.9s-1.7,1.2-2.1,1.7
		c-0.3,0.4-0.8,0.5-1.4,0.5c-0.1,0-0.3-0.2-0.5-0.5s-0.3-0.6-0.3-0.8c0-0.1,0-0.3,0.1-0.3s0.4-0.3,1.2-0.9s1.4-1,2-1.4
		s1.2-0.7,1.8-0.9s1.4-0.3,2.3-0.3c0.8,0,1.6,0.3,2.3,1s1.2,1.3,1.6,2s0.5,1,0.5,1.1c0,1.1-0.8,2.6-2.4,4.4S133.9,343.5,132,344.6z"
		/>
	<path class="st5" d="M149.4,332c0,0.3-0.3,1.4-0.8,3.3c-0.2,0.9-0.4,1.6-0.4,2.2c0,0.4-0.1,0.8-0.2,1.3c-0.3,2-0.5,3.4-0.5,4.1
		c0,1.1,0.1,2.2,0.2,3.2c0.1,0.6,0,1.1-0.3,1.3s-0.6,0.4-0.9,0.4c-0.4,0-0.7-0.2-0.9-0.7s-0.2-1.2-0.2-2.3c0-1.1,0.2-2.6,0.5-4.6
		c0.1-0.7,0.2-1.2,0.2-1.3c0-0.3,0-0.5,0.1-0.8c0-0.3,0.1-0.5,0.1-0.8c0-0.7,0.2-1.7,0.4-2.8c0.2-0.9,0.3-1.7,0.4-2.3
		c0.1-0.5,0.1-0.8,0.2-0.9s0.3-0.3,0.5-0.5s0.5-0.3,0.7-0.3c0.3,0,0.6,0.2,0.7,0.5S149.4,331.6,149.4,332z"/>
	<path class="st5" d="M126,371c0.3,0,0.5,0.2,0.5,0.6c0,0.4-0.4,0.9-1.3,1.7s-1.9,1.3-3,1.7s-2.2,0.6-3.1,0.6
		c-1.4,0-2.6-0.5-3.8-1.4s-1.7-2.2-1.7-4c0-3.2,1.4-6.2,4.1-9.2s5.3-4.5,7.9-4.5c0.9,0,1.7,0.3,2.3,0.9s0.8,1.3,0.8,2
		c0,0.7,0,1.3-0.1,1.7s-0.3,0.8-0.7,1s-0.7,0.4-1,0.4c-0.2,0-0.3-0.1-0.5-0.2s-0.2-0.4-0.2-0.6c0-0.2,0.1-0.6,0.2-1.1
		c0.1-0.6,0.2-1,0.2-1.3c0-0.8-0.3-1.2-1-1.2c-1.1,0-2.4,0.6-4,1.9s-2.9,2.8-4,4.7s-1.7,3.7-1.7,5.3c0,1.1,0.3,2,1,2.7
		s1.5,1.1,2.7,1.1c0.7,0,1.5-0.2,2.5-0.5s1.9-0.8,2.7-1.4S125.8,371,126,371z"/>
	<path class="st5" d="M134.5,354.7c0.6,0,0.8,0.4,0.8,1.1c0,0.6-0.3,2.2-1,4.6c-0.4,1.5-0.8,3.2-1,5s-0.4,3.3-0.4,4.3
		c0,1.3,0.1,2.6,0.2,3.8c0,0.2,0,0.4,0,0.5c0,0.4-0.1,0.7-0.4,1s-0.5,0.4-0.8,0.4c-0.4,0-0.7-0.3-0.9-0.8s-0.2-1.3-0.2-2.5
		c0-2.6,0.3-5.9,0.9-9.7s1.1-6.1,1.5-6.8S134.1,354.7,134.5,354.7z"/>
	<path class="st5" d="M145.5,369.4c-1,1.7-2,3-3.1,3.9s-2,1.4-2.9,1.4c-0.5,0-1-0.3-1.6-0.9s-0.8-1.5-0.8-2.8c0-1,0.2-2.5,0.7-4.5
		c0.4-1.7,0.6-2.8,0.6-3.5c0.2-0.5,0.6-0.7,1.1-0.7c0.3,0,0.6,0.1,0.8,0.3s0.3,0.5,0.3,0.7c0,0.5-0.2,1.3-0.6,2.3
		c-0.7,2-1.1,3.6-1.1,5.1c0,1.3,0.3,1.9,0.9,1.9c0.8,0,1.7-0.6,2.9-1.9s2.2-3.1,3-5.4c0.3-0.9,0.6-1.5,0.8-1.8s0.5-0.4,0.8-0.4
		c0.5,0,0.8,0.4,0.8,1.1c0,0.1-0.1,0.4-0.2,0.9c-0.5,1.7-0.7,3.3-0.7,4.9c0,1.8,0.3,3,0.9,3.6c0.3,0.3,0.5,0.5,0.5,0.7
		c0,0.2-0.2,0.4-0.5,0.6s-0.6,0.3-0.9,0.3c-0.5,0-1-0.4-1.3-1.2s-0.5-2-0.5-3.6v-0.4C145.5,369.7,145.5,369.6,145.5,369.4z"/>
	<path class="st5" d="M153.9,367.9c1-1.8,2.2-3.3,3.6-4.4s2.6-1.7,3.8-1.7c0.6,0,1.1,0.3,1.6,0.9s0.6,1.3,0.6,2.1
		c0,2.4-0.9,4.7-2.7,6.8s-3.8,3.2-5.8,3.2c-0.6,0-1.1-0.2-1.5-0.5s-0.7-0.7-0.8-1.1c0-0.4-0.1-0.6-0.3-0.8c-0.3-0.3-0.5-0.7-0.5-1.1
		c0-0.7,0.2-2.2,0.6-4.6l1.2-7c0.4-2.4,0.7-3.8,0.9-4.4s0.4-0.9,0.6-1.1s0.5-0.3,0.9-0.3c0.5,0,0.8,0.5,0.8,1.4
		c0,0.9-0.3,2.2-0.9,3.8C155.3,360.7,154.7,363.6,153.9,367.9z M153.6,371.8c0.4,0.8,0.9,1.1,1.5,1.1c0.9,0,1.8-0.4,2.8-1.1
		s1.8-1.8,2.6-3.1s1.1-2.5,1.1-3.4c0-0.4-0.1-0.8-0.2-1.1s-0.3-0.4-0.6-0.4c-1.1,0-2.4,0.9-4,2.7S154.2,370,153.6,371.8z"/>
</g>
<path class="st2" d="M237.2,0.1c-4.3,0-8.5,0-12.8,0c1.3,3.1,2.5,6.1,3.8,9.2c4.3-0.2,8.5-0.3,12.8-0.5C239.7,5.9,238.4,3,237.2,0.1
	z"/>
<path class="st2" d="M228.3-1.7"/>
<path class="st2" d="M432.4,450H418c-0.4-0.8-0.9-2-1.5-3.4c-1.4-3.4-2.6-7.2-4-15.7c-0.6-3.5-1.3-7.9-1.9-13.1
	c3.9-1.1,7.7-2.1,11.6-3.2c0.7,5.8,2,12.5,4.3,19.8C428.2,440.4,430.3,445.6,432.4,450z"/>
<rect x="677.5" y="160.3" class="st2" width="122.5" height="11.6"/>
<path class="st1" d="M29.9,196.3"/>
<g>
</g>
<g>
</g>
<g>
</g>
<g>
</g>
</svg>
