<?xml version="1.0" encoding="utf-8"?>
<!-- Generator: Adobe Illustrator 22.1.0, SVG Export Plug-In . SVG Version: 6.00 Build 0)  -->
<svg version="1.1" id="Layer_1" xmlns="http://www.w3.org/2000/svg" xmlns:xlink="http://www.w3.org/1999/xlink" x="0px" y="0px"
	 viewBox="0 0 50 50" style="enable-background:new 0 0 50 50;" xml:space="preserve">
<style type="text/css">
	.st0{fill:url(#SVGID_1_);}
	.st1{fill:url(#SVGID_2_);}
	.st2{fill:#FFFFFF;}
</style>
<radialGradient id="SVGID_1_" cx="25" cy="25" r="24" gradientTransform="matrix(-1 0 0 -1 50 50)" gradientUnits="userSpaceOnUse">
	<stop  offset="0.9333" style="stop-color:#FFFFFF"/>
	<stop  offset="1" style="stop-color:#B3B3B3"/>
</radialGradient>
<circle class="st0" cx="25" cy="25" r="24"/>
<radialGradient id="SVGID_2_" cx="25" cy="25" r="21.75" gradientUnits="userSpaceOnUse">
	<stop  offset="0.7821" style="stop-color:#3FA9F5"/>
	<stop  offset="0.9538" style="stop-color:#2F95EB"/>
</radialGradient>
<circle class="st1" cx="25" cy="25" r="21.8"/>
<g>
	<g>
		<path class="st2" d="M8.5,31c-0.4-0.2-0.7-0.5-0.9-1c-0.2-0.4-0.3-1-0.3-1.6v-0.6l1.3,0v0.6c0,0.5,0.1,0.9,0.4,1.2
			C9.2,29.9,9.5,30,10,30c0.5,0,0.8-0.1,1.1-0.4c0.2-0.3,0.4-0.7,0.4-1.2v-0.9c0-0.3-0.1-0.6-0.2-0.9c-0.1-0.2-0.3-0.4-0.6-0.6
			c-0.2-0.2-0.5-0.3-0.9-0.5c0,0,0,0,0,0s0,0,0,0l-0.1,0c-0.5-0.3-0.9-0.5-1.2-0.7c-0.3-0.2-0.6-0.5-0.8-0.9S7.3,23,7.3,22.4v-0.7
			c0-0.6,0.1-1.1,0.3-1.6c0.2-0.4,0.5-0.7,0.9-0.9s0.9-0.3,1.5-0.3c0.6,0,1.1,0.1,1.5,0.3c0.4,0.2,0.7,0.5,0.9,1s0.3,0.9,0.3,1.6
			v0.6h-1.3v-0.6c0-0.5-0.1-0.9-0.4-1.2s-0.6-0.4-1-0.4c-0.5,0-0.8,0.1-1.1,0.4s-0.4,0.6-0.4,1.1v0.7c0,0.3,0.1,0.6,0.2,0.9
			c0.2,0.2,0.3,0.4,0.6,0.6c0.2,0.2,0.5,0.3,0.9,0.5c0,0,0.1,0,0.1,0.1s0.1,0,0.1,0.1c0,0,0.1,0,0.1,0c0,0,0,0,0.1,0
			c0.4,0.2,0.8,0.4,1.1,0.7c0.3,0.2,0.5,0.5,0.7,0.9c0.2,0.4,0.3,0.9,0.3,1.4v0.9c0,0.6-0.1,1.2-0.3,1.6c-0.2,0.4-0.5,0.7-0.9,1
			c-0.4,0.2-0.9,0.3-1.5,0.3C9.4,31.4,8.9,31.2,8.5,31z"/>
		<path class="st2" d="M14.2,19h1.3v12.2h-1.3V19z M15,19H19v1.3H15V19z M15,24.5h3.7v1.3H15V24.5z M15,29.9H19v1.3H15V29.9z"/>
		<path class="st2" d="M20.2,19h1.3v12.2h-1.3V19z M21,29.9h3.9v1.3H21V29.9z"/>
		<path class="st2" d="M26.1,19h1.3v12.2h-1.3V19z M26.8,19h4.1v1.3h-4.1V19z M26.8,24.5h3.7v1.3h-3.7V24.5z M26.8,29.9h4.1v1.3
			h-4.1V29.9z"/>
		<path class="st2" d="M33.3,31c-0.4-0.2-0.7-0.6-0.9-1.1s-0.3-1-0.3-1.7V22c0-0.7,0.1-1.2,0.3-1.7c0.2-0.5,0.5-0.8,0.9-1.1
			c0.4-0.2,0.9-0.4,1.4-0.4s1,0.1,1.4,0.4s0.7,0.6,0.9,1.1c0.2,0.5,0.3,1,0.3,1.7v0.5H36V22c0-0.4-0.1-0.7-0.2-1
			c-0.1-0.3-0.3-0.5-0.5-0.6c-0.2-0.1-0.4-0.2-0.7-0.2c-0.3,0-0.5,0.1-0.7,0.2c-0.2,0.1-0.3,0.3-0.5,0.6s-0.2,0.6-0.2,1v6.2
			c0,0.4,0.1,0.7,0.2,1s0.3,0.5,0.5,0.6s0.4,0.2,0.7,0.2c0.3,0,0.5-0.1,0.7-0.2c0.2-0.1,0.3-0.3,0.4-0.6c0.1-0.3,0.2-0.6,0.2-1v-0.5
			h1.3v0.5c0,0.7-0.1,1.2-0.3,1.7s-0.5,0.8-0.9,1.1s-0.9,0.4-1.4,0.4C34.2,31.4,33.7,31.2,33.3,31z"/>
		<path class="st2" d="M38,19h5.5v1.3H38V19z M40.1,20h1.3v11.2h-1.3V20z"/>
	</g>
</g>
</svg>
